<svg xmlns="http://www.w3.org/2000/svg" viewBox="0 0 24 24" fill="none" xmlns:v="https://vecta.io/nano"><path fill-rule="evenodd" d="M12.052 1.25h-.104c-.899 0-1.648 0-2.242.08-.628.084-1.195.27-1.65.726s-.641 1.022-.726 1.65c-.057.426-.074 1.446-.078 2.32-2.022.066-3.236.302-4.08 1.146C2 8.343 2 10.229 2 14s0 5.657 1.172 6.828S6.229 22 10 22h4c3.771 0 5.657 0 6.828-1.172S22 17.771 22 14s0-5.657-1.172-6.828c-.844-.844-2.058-1.08-4.08-1.146l-.078-2.32c-.084-.628-.27-1.195-.726-1.65s-1.022-.641-1.65-.726c-.595-.08-1.344-.08-2.242-.08zm3.196 4.752l-.064-2.096c-.062-.461-.169-.659-.3-.789s-.328-.238-.789-.3c-.483-.065-1.131-.067-2.095-.067l-2.095.067c-.461.062-.659.169-.789.3s-.238.328-.3.789c-.046.339-.06 1.25-.064 2.096L10 6h4l1.248.002zM12 9.25a.75.75 0 0 1 .75.75v.01c1.089.274 2 1.133 2 2.323a.75.75 0 1 1-1.5 0c0-.384-.426-.917-1.25-.917s-1.25.533-1.25.917.426.917 1.25.917c1.385 0 2.75.96 2.75 2.417 0 1.19-.911 2.049-2 2.323V18a.75.75 0 1 1-1.5 0v-.01c-1.089-.274-2-1.133-2-2.323a.75.75 0 1 1 1.5 0c0 .384.426.917 1.25.917s1.25-.533 1.25-.917-.426-.917-1.25-.917c-1.385 0-2.75-.96-2.75-2.417 0-1.19.911-2.049 2-2.323V10a.75.75 0 0 1 .75-.75z" fill="#1c274c"/></svg>