<svg width="65" height="67" viewBox="0 0 65 67" fill="none" xmlns="http://www.w3.org/2000/svg">
<path d="M5.44808 0H11.422C12.0325 0 12.5647 0.470519 12.5831 1.08071C12.602 1.71211 12.0958 2.22966 11.4687 2.22966H5.42471L4.39551 1.06368L5.44808 0Z" fill="#FD6470"/>
<path d="M63.1496 34.5497H1.61964C1.00397 34.5497 0.504883 34.0506 0.504883 33.4349C0.504883 32.8193 1.00397 32.3202 1.61964 32.3202H63.1494C63.7651 32.3202 64.2642 32.8193 64.2642 33.4349C64.2642 34.0506 63.7653 34.5497 63.1496 34.5497Z" fill="#E0CFF9"/>
<path d="M5.44823 1.11476C5.44823 0.499088 5.94732 0 6.56299 0H2.23439C1.61872 0 1.11963 0.499088 1.11963 1.11476V10.3024C1.11963 10.9127 1.59 11.4451 2.20019 11.4634C2.83159 11.4823 3.34929 10.9763 3.34929 10.3491V3.23967C3.34929 2.68186 3.80149 2.22966 4.3593 2.22966H5.44823V1.11476Z" fill="#FD4852"/>
<path d="M11.4687 66.87H5.43843L4.3645 65.7553L5.43843 64.6405H11.422C12.0325 64.6405 12.5648 65.111 12.5831 65.7212C12.602 66.3525 12.0958 66.87 11.4687 66.87Z" fill="#FD6470"/>
<path d="M5.44823 65.7552V64.6405H4.3593C3.80149 64.6405 3.34929 64.1883 3.34929 63.6305V56.5209C3.34929 55.8937 2.83145 55.3876 2.20019 55.4065C1.59 55.4249 1.11963 55.9571 1.11963 56.5676V65.7552C1.11963 66.3709 1.61872 66.87 2.23439 66.87H6.56299C5.94732 66.87 5.44823 66.3709 5.44823 65.7552Z" fill="#FD4852"/>
<path d="M57.6407 66.87H52.0359C51.4254 66.87 50.8931 66.3995 50.8748 65.7893C50.8559 65.1579 51.362 64.6403 51.9891 64.6403H55.5158C56.0736 64.6403 56.5258 64.1881 56.5258 63.6303V56.5676C56.5258 55.9573 56.9961 55.4249 57.6063 55.4065C58.2377 55.3876 58.7554 55.8937 58.7554 56.5209V65.7552C58.7554 66.3709 58.2563 66.87 57.6407 66.87Z" fill="#FD6470"/>
<path d="M51.6204 65.7893C51.6015 65.1579 52.1076 64.6403 52.7347 64.6403H48.4061C47.779 64.6403 47.2729 65.1579 47.2918 65.7893C47.31 66.3995 47.8424 66.87 48.4528 66.87H52.7815C52.171 66.87 51.6386 66.3995 51.6204 65.7893Z" fill="#FD4852"/>
<path d="M57.6062 11.4634C56.9961 11.4451 56.5257 10.9128 56.5257 10.3024V3.23967C56.5257 2.68186 56.0735 2.22966 55.5157 2.22966H52.2855C51.675 2.22966 50.8758 1.75914 50.8575 1.14896C50.8386 0.517557 51.6117 0 52.2388 0H57.6406C58.2563 0 58.7553 0.499088 58.7553 1.11476V10.3491C58.7553 10.9762 58.2376 11.4823 57.6062 11.4634Z" fill="#FD6470"/>
<path d="M51.6204 1.14896C51.6015 0.517557 52.1076 0 52.7347 0H48.4061C47.779 0 47.2729 0.517557 47.2918 1.14896C47.31 1.75914 47.8424 2.22966 48.4528 2.22966H52.7815C52.171 2.22966 51.6386 1.75914 51.6204 1.14896Z" fill="#FD4852"/>
<path d="M23.3725 61.1251C15.5856 58.3551 10.3538 50.9383 10.3538 42.6695V40.3592C10.3538 39.7434 10.8528 39.2444 11.4685 39.2444C12.0842 39.2444 12.5833 39.7435 12.5833 40.3592V42.6695C12.5833 49.9972 17.2194 56.5698 24.1196 59.0244C24.6996 59.2309 25.0026 59.8683 24.7963 60.4484C24.5902 61.0281 23.9525 61.3315 23.3725 61.1251Z" fill="#99DA2B"/>
<path d="M29.9374 62.2528C29.43 62.2528 28.9187 62.2332 28.4173 62.1946C27.8034 62.1475 27.3441 61.6116 27.3913 60.9976C27.4385 60.3836 27.9748 59.9216 28.5884 59.9716C29.0331 60.0057 29.4869 60.0231 29.9374 60.0231C38.2299 60.0231 44.9771 54.2586 46.7974 46.7982C46.9434 46.2 47.5467 45.834 48.1448 45.9796C48.7428 46.1254 49.1095 46.7287 48.9636 47.3269C46.9159 55.7182 39.3278 62.2528 29.9374 62.2528Z" fill="#99DA2B"/>
<path d="M48.406 43.3188C47.7903 43.3188 47.2913 42.8197 47.2913 42.204V38.0521C47.2913 37.4363 47.7903 36.9374 48.406 36.9374C49.0217 36.9374 49.5208 37.4365 49.5208 38.0521V42.2038C49.5208 42.8197 49.0217 43.3188 48.406 43.3188Z" fill="#99DA2B"/>
<path d="M48.406 29.9326C47.7903 29.9326 47.2912 29.4335 47.2912 28.8178V24.2007C47.2912 21.2706 46.5477 18.3751 45.1412 15.8271C44.8437 15.2881 45.0394 14.6098 45.5784 14.3123C46.1173 14.0147 46.7956 14.2107 47.0931 14.7494C48.6815 17.6267 49.5209 20.8948 49.5209 24.2007V28.8178C49.5208 29.4335 49.0217 29.9326 48.406 29.9326Z" fill="#99DA2B"/>
<path d="M12.5635 17.8226C11.9995 17.5759 11.7424 16.9183 11.9894 16.3543C17.6149 3.50343 34.3748 0.651887 43.9935 10.5645C44.4223 11.0063 44.4117 11.7122 43.9699 12.141C43.5282 12.5695 42.8223 12.559 42.3935 12.1172C33.8722 3.33577 19.0192 5.85573 14.0321 17.2486C13.7854 17.8116 13.1284 18.0699 12.5635 17.8226Z" fill="#99DA2B"/>
<path d="M11.4688 29.9326C10.8531 29.9326 10.354 29.4335 10.354 28.8178V24.2007C10.354 23.2455 10.4236 22.2853 10.5606 21.3467C10.6496 20.7375 11.2154 20.3159 11.8249 20.4048C12.434 20.4938 12.8558 21.0597 12.7669 21.669C12.6453 22.5013 12.5837 23.353 12.5837 24.2007V28.8178C12.5835 29.4335 12.0844 29.9326 11.4688 29.9326Z" fill="#99DA2B"/>
<path d="M29.9375 57.6358C21.685 57.6358 14.9712 50.9218 14.9712 42.6695V38.0523C14.9712 37.4365 15.4703 36.9376 16.086 36.9376C16.7016 36.9376 17.2007 37.4367 17.2007 38.0523V42.6695C17.2007 49.6925 22.9143 55.4061 29.9373 55.4061C32.7349 55.4061 35.3895 54.5166 37.614 52.8336C38.105 52.4627 38.8043 52.5592 39.1756 53.0501C39.5471 53.5411 39.4502 54.2403 38.9592 54.6118C36.3445 56.59 33.2248 57.6358 29.9375 57.6358Z" fill="#BBEC6C"/>
<path d="M41.5916 51.2722C41.3848 51.2722 41.1759 51.2149 40.989 51.0945C40.4713 50.7612 40.3218 50.0714 40.6551 49.5539C41.9758 47.5024 42.674 45.1218 42.674 42.6695V38.0523C42.674 37.4365 43.1731 36.9376 43.7888 36.9376C44.4044 36.9376 44.9035 37.4367 44.9035 38.0523V42.6695C44.9035 45.5508 44.0827 48.3485 42.5297 50.7607C42.3168 51.0917 41.9579 51.2722 41.5916 51.2722Z" fill="#BBEC6C"/>
<path d="M43.7891 28.5158C43.1734 28.5158 42.6744 28.0167 42.6744 27.4011V24.2006C42.6744 18.01 38.2579 12.7357 32.1727 11.6594C31.5664 11.5522 31.1619 10.9736 31.2692 10.3673C31.3764 9.76099 31.955 9.35612 32.5612 9.46361C39.713 10.7289 44.9039 16.9266 44.9039 24.2006V27.4011C44.9039 28.0167 44.4048 28.5158 43.7891 28.5158Z" fill="#BBEC6C"/>
<path d="M16.086 28.5158C15.4703 28.5158 14.9712 28.0167 14.9712 27.4011V24.2006C14.9712 16.9266 20.1621 10.7289 27.3139 9.46362C27.9201 9.35598 28.4987 9.76085 28.6059 10.3673C28.7131 10.9736 28.3086 11.552 27.7023 11.6594C21.6173 12.7358 17.2007 18.01 17.2007 24.2006V27.4011C17.2009 28.0167 16.7016 28.5158 16.086 28.5158Z" fill="#BBEC6C"/>
<path d="M29.9375 53.0184C24.2309 53.0184 19.5884 48.3759 19.5884 42.6693V38.0521C19.5884 37.4363 20.0875 36.9374 20.7031 36.9374C21.3188 36.9374 21.8179 37.4365 21.8179 38.0521V42.6693C21.8179 47.1464 25.4603 50.7888 29.9375 50.7888C34.4147 50.7888 38.0571 47.1464 38.0571 42.6693V40.359C38.0571 39.7432 38.5562 39.2442 39.1718 39.2442C39.7875 39.2442 40.2866 39.7433 40.2866 40.359V42.6693C40.2866 48.3759 35.644 53.0184 29.9375 53.0184Z" fill="#99DA2B"/>
<path d="M26.3778 16.227C26.3778 16.8469 25.8246 17.3897 25.1974 17.3897C24.572 17.3897 24.0813 16.8812 24.0813 16.2758C24.0813 15.5774 24.7078 15.1215 25.2595 15.1215C26.0341 15.1215 26.3778 15.7934 26.3778 16.227Z" fill="#99DA2B"/>
<path d="M39.1705 25.1787C39.1397 25.1787 38.0526 25.1851 38.0526 23.914C38.0526 23.3108 38.5379 22.7996 39.1739 22.7996C39.2067 22.7996 40.2855 22.7973 40.2855 24.0642C40.2857 24.6776 39.7886 25.1787 39.1705 25.1787ZM37.8771 20.5955C37.1573 20.5955 36.6836 19.9092 36.6836 19.3537C36.6836 19.069 36.9094 18.2377 37.7975 18.2377C38.5023 18.2377 38.991 18.9059 38.991 19.4794C38.991 19.9081 38.6562 20.5955 37.8771 20.5955ZM34.4666 17.2669C34.2577 17.2669 33.2214 17.0567 33.2214 16.0784C33.2214 15.5014 33.6831 14.9644 34.3373 14.9644C34.8569 14.9644 35.5826 15.4 35.5826 16.153C35.5825 16.7268 35.1208 17.2669 34.4666 17.2669ZM29.7037 16.084C29.0906 16.084 28.5894 15.5871 28.5894 14.9687C28.5894 14.939 28.582 13.8518 29.8542 13.8518C30.4655 13.8518 30.9686 14.347 30.9686 14.9668C30.9686 14.9967 30.9761 16.084 29.7037 16.084Z" fill="#99DA2B"/>
<path d="M39.1718 29.9325C37.6856 29.9325 37.6836 27.6278 39.1718 27.6278C40.6579 27.6278 40.6599 29.9325 39.1718 29.9325Z" fill="#99DA2B"/>
<path d="M20.7031 29.9326C20.0875 29.9326 19.5884 29.4335 19.5884 28.8178V24.2007C19.5884 22.4689 20.0248 20.7551 20.8506 19.2443C21.1458 18.7039 21.8231 18.5054 22.3634 18.8007C22.9038 19.0959 23.1023 19.7734 22.807 20.3136C22.16 21.4974 21.8179 22.8416 21.8179 24.2008V28.818C21.8179 29.4335 21.3188 29.9326 20.7031 29.9326Z" fill="#99DA2B"/>
<path d="M24.4343 44.2774C24.2824 43.7568 24.2053 43.2159 24.2053 42.6692V40.359C24.2053 39.7432 24.7044 39.2443 25.3201 39.2443C25.9358 39.2443 26.4348 39.7434 26.4348 40.359V42.6693C26.4348 43.0045 26.4817 43.3354 26.5745 43.6528C26.7469 44.2439 26.4077 44.8628 25.8166 45.0354C25.2253 45.2082 24.6066 44.8676 24.4343 44.2774Z" fill="#BBEC6C"/>
<path d="M28.9823 48.3219C28.3752 48.2199 27.9657 47.6449 28.0675 47.0377C28.1696 46.4307 28.744 46.0224 29.3517 46.1231C31.502 46.4841 33.4398 44.8215 33.4398 42.6693V38.0521C33.4398 37.4363 33.9389 36.9374 34.5545 36.9374C35.1702 36.9374 35.6693 37.4365 35.6693 38.0521V42.6693C35.6694 46.1905 32.4976 48.9123 28.9823 48.3219Z" fill="#BBEC6C"/>
<path d="M25.3203 29.9326C24.7047 29.9326 24.2056 29.4335 24.2056 28.8178V24.2006C24.2056 21.04 26.7769 18.4687 29.9375 18.4687C33.0981 18.4687 35.6694 21.04 35.6694 24.2006V27.1506C35.6694 27.7664 35.1704 28.2653 34.5547 28.2653C33.939 28.2653 33.4399 27.7662 33.4399 27.1506V24.2006C33.4399 22.2695 31.8688 20.6984 29.9376 20.6984C28.0065 20.6984 26.4354 22.2693 26.4354 24.2006V28.8178C26.4352 29.4335 25.936 29.9326 25.3203 29.9326Z" fill="#BBEC6C"/>
<path d="M29.9373 29.9326C29.3216 29.9326 28.8225 29.4335 28.8225 28.8178V24.2008C28.8225 23.585 29.3216 23.086 29.9373 23.086C30.5529 23.086 31.052 23.5851 31.052 24.2008V28.8178C31.052 29.4335 30.5529 29.9326 29.9373 29.9326Z" fill="#99DA2B"/>
<path d="M29.9373 43.7841C29.3216 43.7841 28.8225 43.285 28.8225 42.6693V38.0488C28.8225 37.433 29.3216 36.9341 29.9373 36.9341C30.5529 36.9341 31.052 37.4332 31.052 38.0488V42.6693C31.052 43.285 30.5529 43.7841 29.9373 43.7841Z" fill="#99DA2B"/>
</svg>
