<svg width="65" height="67" viewBox="0 0 65 67" fill="none" xmlns="http://www.w3.org/2000/svg">
<path d="M19.9303 52.2624C14.0895 48.2861 10.072 42.2904 8.55107 35.5576L8.17284 35.9358C8.01206 36.0966 7.79813 36.1853 7.57061 36.1853C7.3431 36.1853 7.1293 36.0966 6.96839 35.9358L6.53491 35.5023C8.0771 42.9116 12.4317 49.5276 18.8279 53.8819C19.2752 54.1864 19.8844 54.0705 20.1888 53.6235C20.4932 53.1763 20.3775 52.5669 19.9303 52.2624Z" fill="#FE9738"/>
<path d="M56.2021 52.3374H54.0443C60.8793 46.7576 64.8925 38.3942 64.8925 29.4894C64.8925 21.6125 61.8251 14.2071 56.2553 8.63733C50.6855 3.06753 43.2799 0 35.403 0C30.0165 0 24.8511 1.43522 20.3418 4.12322C20.7215 4.20889 21.0062 4.54821 21.0062 4.95348V6.03293C25.1977 3.45086 30.1291 1.95908 35.403 1.95908C50.5832 1.95908 62.9333 14.3091 62.9333 29.4894C62.9333 38.063 58.9487 46.0998 52.1982 51.3026V48.3334C52.1982 47.7925 51.7596 47.3539 51.2186 47.3539C50.6777 47.3539 50.2391 47.7925 50.2391 48.3334V53.317C50.2391 53.8579 50.6777 54.2965 51.2186 54.2965H56.2021C56.7431 54.2965 57.1817 53.8579 57.1817 53.317C57.1817 52.776 56.7431 52.3374 56.2021 52.3374Z" fill="#FE9738"/>
<path d="M35.1227 9.82584C33.8093 9.84412 32.5262 9.99353 31.2855 10.2605L31.9646 10.9396C32.1254 11.1005 32.2141 11.3143 32.2141 11.5419C32.2141 11.7694 32.1255 11.9832 31.9646 12.1441L29.5436 14.5651C29.2007 14.908 29.1213 15.4319 29.3458 15.8691C29.6643 16.4888 29.9336 17.1371 30.1463 17.7959C30.297 18.2626 30.7233 18.576 31.2072 18.576H34.6287C35.0984 18.576 35.4804 18.958 35.4804 19.4277V24.126C35.4804 24.5955 35.0984 24.9776 34.6287 24.9776H31.2072C30.7233 24.9776 30.297 25.2911 30.1463 25.7577C29.9337 26.4164 29.6644 27.0647 29.3458 27.6846C29.1213 28.1217 29.2007 28.6457 29.5436 28.9884L31.9646 31.4094C32.1254 31.5702 32.2141 31.7841 32.2141 32.0117C32.2141 32.2392 32.1255 32.453 31.9646 32.6139L28.6425 35.9361C28.4816 36.0969 28.2678 36.1856 28.0403 36.1856C27.8128 36.1856 27.599 36.0969 27.4381 35.9361L25.0171 33.5151C24.8082 33.3062 24.5296 33.1913 24.2326 33.1913C24.0534 33.1913 23.8739 33.2348 23.7132 33.3173C23.0935 33.6357 22.4453 33.9051 21.7864 34.1178C21.3197 34.2685 21.0063 34.6948 21.0063 35.1787V38.6003C21.0063 39.0698 20.6243 39.452 20.1546 39.452H18.4463C19.5378 41.3053 20.9231 42.9648 22.5402 44.3643C24.4291 45.9989 25.944 48.0208 27.0323 50.2691L28.0673 52.4074H42.7385L43.7738 50.2686C44.8763 47.9911 46.4333 45.9659 48.3385 44.3009C52.4629 40.6963 55.0685 35.3976 55.0685 29.4897C55.0685 18.5351 46.1121 9.67277 35.1227 9.82584Z" fill="#FED402"/>
<path d="M28.0042 52.2764H34.836L32.5567 47.5675C31.4683 45.3192 29.9535 43.2974 28.0646 41.6627C25.6719 39.5921 23.785 36.9535 22.6109 33.9573C22.353 34.0594 22.0922 34.1559 21.8264 34.2417C21.4176 34.3738 21.1368 34.7487 21.1368 35.1783V38.5999C21.1368 39.1424 20.6971 39.5822 20.1545 39.5822H18.5223C19.6017 41.3831 20.961 42.9971 22.5403 44.3639C24.4291 45.9984 25.944 48.0204 27.0323 50.2687L28.0042 52.2764Z" fill="#FAC600"/>
<path d="M37.2848 39.0597V52.407H39.2439V38.4542C38.6214 38.7219 37.9656 38.9261 37.2848 39.0597Z" fill="#FE9738"/>
<path d="M33.5212 52.4071V39.0574C32.8476 38.924 32.1907 38.7211 31.5621 38.4514V52.4071H33.5212Z" fill="#FE9738"/>
<path d="M35.4804 19.6065V24.1258C35.4804 24.5953 35.0984 24.9775 34.6287 24.9775H31.2073C30.7234 24.9775 30.2971 25.2909 30.1464 25.7576C29.9337 26.4162 29.6644 27.0646 29.3459 27.6844C29.1214 28.1216 29.2008 28.6456 29.5436 28.9883L31.9647 31.4093C32.1254 31.5701 32.2141 31.784 32.2141 32.0115C32.2141 32.239 32.1256 32.4528 31.9647 32.6137L28.6426 35.936C28.5027 36.0757 28.323 36.1607 28.1289 36.1807C29.9354 38.1436 32.5251 39.3743 35.403 39.3743C40.8622 39.3743 45.2877 34.9487 45.2877 29.4895C45.2877 24.0561 40.9038 19.6484 35.4804 19.6065Z" fill="white"/>
<path d="M35.4803 19.6064V22.3895C36.4449 21.4557 37.5989 20.7163 38.8792 20.235C37.8207 19.8372 36.6759 19.6157 35.4803 19.6064Z" fill="#FFF3DE"/>
<path d="M32.471 29.4894C32.471 27.8635 32.8649 26.3302 33.5606 24.9775H31.2074C30.7235 24.9775 30.2972 25.291 30.1465 25.7576C29.9339 26.4163 29.6646 27.0646 29.346 27.6844C29.1215 28.1216 29.2009 28.6456 29.5437 28.9883L31.9648 31.4093C32.1256 31.5701 32.2142 31.784 32.2142 32.0115C32.2142 32.239 32.1257 32.4528 31.9648 32.6138L28.6427 35.936C28.5028 36.0757 28.3231 36.1607 28.129 36.1807C29.9356 38.1436 32.5252 39.3743 35.4031 39.3743C36.6269 39.3743 37.7979 39.1504 38.8796 38.7439C35.1356 37.3367 32.471 33.7248 32.471 29.4894Z" fill="#FFF3DE"/>
<path d="M29.693 61.5103L30.3246 65.9752C30.3972 66.4885 30.8364 66.87 31.3548 66.87H39.4509C39.9693 66.87 40.4085 66.4885 40.4811 65.9752L41.1127 61.5103H29.693Z" fill="#8B8089"/>
<path d="M35.2326 65.9753L34.6194 61.641H29.7115L30.3247 65.9753C30.3974 66.4885 30.8366 66.87 31.355 66.87H36.2628C35.7445 66.87 35.3053 66.4885 35.2326 65.9753Z" fill="#7B7179"/>
<path d="M35.611 24.1258V19.4277C35.611 18.8852 35.1713 18.4454 34.6287 18.4454H31.2073C30.7777 18.4454 30.4026 18.1646 30.2707 17.7558C30.0529 17.0814 29.7815 16.4311 29.4621 15.8094C29.2654 15.4266 29.3316 14.9619 29.636 14.6575L32.057 12.2364C32.4406 11.8528 32.4406 11.2309 32.057 10.8473L28.7349 7.5251C28.3513 7.14151 27.7294 7.14151 27.3458 7.5251L24.9248 9.94613C24.6204 10.2504 24.1558 10.3167 23.7728 10.12C23.1511 9.80064 22.5009 9.52924 21.8264 9.31139C21.4176 9.17935 21.1368 8.80438 21.1368 8.37482V4.95348C21.1368 4.41094 20.6971 3.97119 20.1545 3.97119H15.4564C14.9138 3.97119 14.4741 4.41094 14.4741 4.95348V8.37495C14.4741 8.80451 14.1933 9.17961 13.7845 9.31152C13.1101 9.52937 12.4598 9.80077 11.8381 10.1201C11.4553 10.3168 10.9906 10.2506 10.6861 9.94626L8.26524 7.52523C7.88165 7.14164 7.25971 7.14164 6.87612 7.52523L3.55404 10.8473C3.17045 11.2309 3.17045 11.8528 3.55404 12.2364L5.97507 14.6575C6.27938 14.9618 6.3456 15.4265 6.14891 15.8094C5.82958 16.4311 5.55805 17.0814 5.34033 17.7558C5.20829 18.1646 4.83332 18.4454 4.40376 18.4454H0.982284C0.439749 18.4454 0 18.8852 0 19.4277V24.1258C0 24.6684 0.439749 25.1081 0.982284 25.1081H4.40376C4.83332 25.1081 5.20842 25.3889 5.34033 25.7977C5.55818 26.4722 5.82958 27.1225 6.14891 27.7441C6.3456 28.1271 6.27938 28.5916 5.97507 28.8961L3.55404 31.3171C3.17045 31.7007 3.17045 32.3226 3.55404 32.7062L6.87612 36.0284C7.25971 36.412 7.88165 36.412 8.26524 36.0284L10.6863 33.6074C10.9906 33.3031 11.4553 33.2369 11.8381 33.4336C12.4598 33.7529 13.1101 34.0243 13.7845 34.2421C14.1933 34.3742 14.4741 34.7492 14.4741 35.1787V38.6003C14.4741 39.1429 14.9138 39.5826 15.4564 39.5826H20.1545C20.6971 39.5826 21.1368 39.1429 21.1368 38.6003V35.1787C21.1368 34.7492 21.4176 34.3741 21.8264 34.2421C22.5009 34.0243 23.1511 33.7529 23.7728 33.4336C24.1556 33.2369 24.6203 33.3031 24.9246 33.6074L27.3458 36.0284C27.7294 36.412 28.3513 36.412 28.7349 36.0284L32.057 32.7062C32.4406 32.3226 32.4406 31.7007 32.057 31.3171L29.636 28.8961C29.3316 28.5918 29.2654 28.1271 29.4621 27.7441C29.7815 27.1225 30.0529 26.4722 30.2707 25.7977C30.4027 25.3889 30.7777 25.1081 31.2073 25.1081H34.6287C35.1713 25.1081 35.611 24.6684 35.611 24.1258Z" fill="#BAAFB9"/>
<path d="M8.48348 21.7768C8.48348 14.6227 14.0824 8.77708 21.1373 8.38096C21.1373 8.37887 21.1368 8.37704 21.1368 8.37495V4.95348C21.1368 4.41094 20.6971 3.97119 20.1545 3.97119H15.4564C14.9138 3.97119 14.4741 4.41094 14.4741 4.95348V8.37495C14.4741 8.80451 14.1933 9.17961 13.7845 9.31152C13.1101 9.52937 12.4598 9.80077 11.8381 10.1201C11.4551 10.3168 10.9906 10.2506 10.6861 9.94626L8.26524 7.52523C7.88165 7.14164 7.25971 7.14164 6.87612 7.52523L3.55404 10.8473C3.17045 11.2309 3.17045 11.8528 3.55404 12.2364L5.97507 14.6575C6.27938 14.9618 6.3456 15.4265 6.14891 15.8094C5.82958 16.4311 5.55818 17.0814 5.34033 17.7558C5.20829 18.1646 4.83332 18.4454 4.40376 18.4454H0.982284C0.439749 18.4454 0 18.8852 0 19.4277V24.1258C0 24.6684 0.439749 25.1081 0.982284 25.1081H4.40376C4.83332 25.1081 5.20842 25.3889 5.34033 25.7977C5.55818 26.4722 5.82958 27.1225 6.14891 27.7441C6.3456 28.1271 6.27938 28.5916 5.97507 28.8961L3.55404 31.3171C3.17045 31.7007 3.17045 32.3226 3.55404 32.7062L6.87612 36.0284C7.25971 36.412 7.88165 36.412 8.26524 36.0284L10.6864 33.6074C10.9907 33.3031 11.4554 33.2369 11.8382 33.4336C12.4599 33.7529 13.1102 34.0243 13.7846 34.2421C14.1934 34.3742 14.4742 34.7492 14.4742 35.1787V38.6003C14.4742 39.1429 14.914 39.5826 15.4565 39.5826H20.1546C20.6972 39.5826 21.1369 39.1429 21.1369 38.6003V35.1787C21.1369 35.1768 21.1375 35.1748 21.1375 35.1728C14.0824 34.7765 8.48348 28.9308 8.48348 21.7768Z" fill="#AA9EA9"/>
<path d="M17.8056 29.5021C22.0722 29.5021 25.531 26.0434 25.531 21.7768C25.531 17.5102 22.0722 14.0515 17.8056 14.0515C13.5391 14.0515 10.0803 17.5102 10.0803 21.7768C10.0803 26.0434 13.5391 29.5021 17.8056 29.5021Z" fill="#E5E1E5"/>
<path d="M17.8056 30.4816C13.0057 30.4816 9.10071 26.5766 9.10071 21.7767C9.10071 16.9768 13.0057 13.0719 17.8056 13.0719C22.6054 13.0719 26.5104 16.9768 26.5104 21.7767C26.5104 26.5766 22.6054 30.4816 17.8056 30.4816ZM17.8056 15.031C14.0859 15.031 11.0598 18.0571 11.0598 21.7767C11.0598 25.4964 14.0859 28.5225 17.8056 28.5225C21.5252 28.5225 24.5513 25.4964 24.5513 21.7767C24.5513 18.0571 21.5252 15.031 17.8056 15.031Z" fill="#9B8E99"/>
<path d="M17.8056 24.7154C19.4285 24.7154 20.7442 23.3997 20.7442 21.7768C20.7442 20.1538 19.4285 18.8381 17.8056 18.8381C16.1826 18.8381 14.8669 20.1538 14.8669 21.7768C14.8669 23.3997 16.1826 24.7154 17.8056 24.7154Z" fill="#BAAFB9"/>
<path d="M17.5572 21.7768C17.5572 20.6387 18.2046 19.6525 19.1507 19.1644C18.7475 18.9563 18.2905 18.8381 17.8056 18.8381C16.1827 18.8381 14.8669 20.1539 14.8669 21.7768C14.8669 23.3997 16.1827 24.7154 17.8056 24.7154C18.2905 24.7154 18.7475 24.5972 19.1507 24.3891C18.2046 23.9009 17.5572 22.9147 17.5572 21.7768Z" fill="#AA9EA9"/>
<path d="M45.0797 61.641H25.7263C25.1517 61.641 24.6858 61.1751 24.6858 60.6004V53.317C24.6858 52.7423 25.1517 52.2764 25.7263 52.2764H45.0797C45.6544 52.2764 46.1202 52.7423 46.1202 53.317V60.6004C46.1202 61.1751 45.6544 61.641 45.0797 61.641Z" fill="#BAAFB9"/>
<path d="M31.5169 60.6006V53.3171C31.5169 52.7424 31.9827 52.2766 32.5574 52.2766H25.7263C25.1517 52.2766 24.6858 52.7424 24.6858 53.3171V60.6006C24.6858 61.1752 25.1517 61.6411 25.7263 61.6411H32.5574C31.9827 61.641 31.5169 61.1751 31.5169 60.6006Z" fill="#AA9EA9"/>
</svg>
