<svg width="67" height="67" viewBox="0 0 67 67" fill="none" xmlns="http://www.w3.org/2000/svg">
<path d="M61.5654 40.2983H32.0006C29.5644 40.2983 27.5901 42.2726 27.5901 44.7088V61.4647C27.5901 63.9009 29.5644 65.8752 32.0006 65.8752H61.5654C64.0016 65.8752 65.9759 63.9009 65.9759 61.4647V44.7088C65.9759 42.2726 64.0016 40.2983 61.5654 40.2983Z" fill="#FF491F"/>
<path d="M52.4195 46.0546H27.5901V51.4042H65.9759V46.0546H52.4195Z" fill="#2D303B"/>
<path d="M0.994873 0.994812H48.7964V28.7673H0.994873V0.994812Z" fill="#32CC77"/>
<path d="M44.6197 19.4573V10.3048C41.7845 10.3048 39.4862 8.00602 39.4862 5.1713H10.3046C10.3046 8.00602 8.00638 10.3048 5.17114 10.3048V19.4573C8.00638 19.4573 10.3046 21.7556 10.3046 24.5908H39.4862C39.4862 21.7556 41.7845 19.4573 44.6197 19.4573Z" fill="#1FB25E"/>
<path d="M30.0675 14.8808C30.0675 17.7375 27.7519 20.0536 24.8952 20.0536C22.0385 20.0536 19.7229 17.7375 19.7229 14.8808C19.7229 12.0246 22.0385 9.70847 24.8952 9.70847C27.7519 9.70847 30.0675 12.0246 30.0675 14.8808Z" fill="#32CC77"/>
<path d="M61.5653 39.3035H32.0005C29.0197 39.3035 26.5952 41.7284 26.5952 44.7088V61.4647C26.5952 64.4451 29.0197 66.87 32.0005 66.87H54.8357C55.385 66.87 55.8305 66.4245 55.8305 65.8752C55.8305 65.3259 55.385 64.8809 54.8357 64.8809H32.0005C30.1167 64.8809 28.5843 63.3486 28.5843 61.4647V52.3985H64.9815V61.4647C64.9815 63.3486 63.4487 64.8809 61.5653 64.8809H58.1512C57.6019 64.8809 57.1569 65.3259 57.1569 65.8752C57.1569 66.4245 57.6019 66.87 58.1512 66.87H61.5653C64.5457 66.87 66.9706 64.4451 66.9706 61.4647V44.7088C66.9706 41.7284 64.5457 39.3035 61.5653 39.3035ZM32.0005 41.2926H61.5653C63.4487 41.2926 64.9815 42.8249 64.9815 44.7088V45.0598H28.5843V44.7088C28.5843 42.8249 30.1167 41.2926 32.0005 41.2926ZM28.5843 50.4094V47.0494H64.9815V50.4094H28.5843Z" fill="black"/>
<path d="M43.7548 55.1198C43.2056 55.1198 42.76 55.5653 42.76 56.1146C42.76 56.6639 43.2056 57.1089 43.7548 57.1089H49.8111C50.3608 57.1089 50.8059 56.6639 50.8059 56.1146C50.8059 55.5653 50.3608 55.1198 49.8111 55.1198H43.7548Z" fill="black"/>
<path d="M60.4531 56.1146C60.4531 55.5653 60.0075 55.1198 59.4583 55.1198H53.402C52.8523 55.1198 52.4072 55.5653 52.4072 56.1146C52.4072 56.6639 52.8523 57.1089 53.402 57.1089H59.4583C60.0075 57.1089 60.4531 56.6639 60.4531 56.1146Z" fill="black"/>
<path d="M34.1076 55.1198C33.5583 55.1198 33.1128 55.5653 33.1128 56.1146C33.1128 56.6639 33.5583 57.1089 34.1076 57.1089H40.1638C40.7136 57.1089 41.1587 56.6639 41.1587 56.1146C41.1587 55.5653 40.7136 55.1198 40.1638 55.1198H34.1076Z" fill="black"/>
<path d="M48.7963 29.7621C49.3456 29.7621 49.7911 29.3165 49.7911 28.7673V0.994811C49.7911 0.445545 49.3456 0 48.7963 0H0.994811C0.445545 0 0 0.445545 0 0.994811V8.23491C0 8.78418 0.445545 9.22972 0.994811 9.22972C1.54408 9.22972 1.98911 8.78418 1.98911 8.23491V1.98911H47.8015V27.7724H1.98911V11.5509C1.98911 11.0017 1.54408 10.5561 0.994811 10.5561C0.445545 10.5561 0 11.0017 0 11.5509V28.7673C0 29.3165 0.445545 29.7621 0.994811 29.7621H48.7963Z" fill="black"/>
<path d="M36.2828 25.5856H39.4864C40.0357 25.5856 40.4807 25.1401 40.4807 24.5908C40.4807 22.3089 42.3375 20.4521 44.6194 20.4521C45.1692 20.4521 45.6142 20.0066 45.6142 19.4573V10.3048C45.6142 9.7555 45.1692 9.30995 44.6194 9.30995C42.3375 9.30995 40.4807 7.45318 40.4807 5.17129C40.4807 4.62203 40.0357 4.17648 39.4864 4.17648H10.3048C9.75553 4.17648 9.30998 4.62203 9.30998 5.17129C9.30998 7.45318 7.45372 9.30995 5.17132 9.30995C4.62206 9.30995 4.17651 9.7555 4.17651 10.3048V19.4573C4.17651 20.0066 4.62206 20.4521 5.17132 20.4521C7.45321 20.4521 9.30998 22.3089 9.30998 24.5908C9.30998 25.1401 9.75553 25.5856 10.3048 25.5856H32.9673C33.5165 25.5856 33.9621 25.1401 33.9621 24.5908C33.9621 24.0415 33.5165 23.596 32.9673 23.596H11.2189C10.7953 21.0127 8.74948 18.9668 6.16562 18.5433V11.2188C8.74948 10.7953 10.7953 8.74945 11.2189 6.16559H38.5723C38.9959 8.74945 41.0412 10.7953 43.6251 11.2188V18.5438C41.0412 18.9673 38.9959 21.0127 38.5723 23.5965H36.2828C35.7335 23.5965 35.2885 24.0415 35.2885 24.5908C35.2885 25.1401 35.7335 25.5856 36.2828 25.5856Z" fill="black"/>
<path d="M18.7283 14.8808C18.7283 18.2816 21.495 21.0479 24.8954 21.0479C28.2962 21.0479 31.0625 18.2816 31.0625 14.8808C31.0625 11.4804 28.2962 8.71417 24.8954 8.71417C21.495 8.71417 18.7283 11.4804 18.7283 14.8808ZM29.0734 14.8808C29.0734 17.1846 27.1992 19.0588 24.8954 19.0588C22.592 19.0588 20.7179 17.1846 20.7179 14.8808C20.7179 12.5774 22.592 10.7033 24.8954 10.7033C27.1992 10.7033 29.0734 12.5774 29.0734 14.8808Z" fill="black"/>
<path d="M38.9626 15.8756C39.5124 15.8756 39.9574 15.4306 39.9574 14.8808C39.9574 14.3315 39.5124 13.8865 38.9626 13.8865H35.7799C35.2307 13.8865 34.7856 14.3315 34.7856 14.8808C34.7856 15.4306 35.2307 15.8756 35.7799 15.8756H38.9626Z" fill="black"/>
<path d="M10.828 13.8865C10.2788 13.8865 9.83374 14.3315 9.83374 14.8808C9.83374 15.4306 10.2788 15.8756 10.828 15.8756H14.0107C14.56 15.8756 15.0055 15.4306 15.0055 14.8808C15.0055 14.3315 14.56 13.8865 14.0107 13.8865H10.828Z" fill="black"/>
<path d="M50.9525 12.3286C57.2326 17.5469 60.8347 25.2177 60.8347 33.3745C60.8347 33.6964 60.8271 34.0193 60.8158 34.3422L58.4685 31.9014C58.0879 31.5054 57.4584 31.4932 57.0619 31.8738C56.6664 32.2545 56.6537 32.884 57.0348 33.2799L60.8833 37.2822C61.0498 37.4554 61.2736 37.5611 61.5117 37.5821C61.5199 37.5836 61.5281 37.5852 61.5363 37.5862C61.5741 37.5908 61.6119 37.5928 61.6492 37.5928C62.0068 37.5928 62.3282 37.3997 62.5035 37.1044L66.2916 33.4608C66.6876 33.0802 66.6999 32.4502 66.3192 32.0547C65.9386 31.6587 65.3091 31.6464 64.9126 32.0271L62.8146 34.0453C62.8198 33.8215 62.8238 33.5977 62.8238 33.3745C62.8238 24.6245 58.9606 16.3962 52.2238 10.7988C51.8017 10.4478 51.1743 10.5056 50.8233 10.9281C50.4722 11.3507 50.5305 11.9776 50.9525 12.3286Z" fill="black"/>
<path d="M24.2091 59.1108C18.9673 57.2208 14.4756 53.8148 11.2199 49.2603C8.32331 45.2074 6.61624 40.5175 6.22383 35.5828L8.65696 37.7195C9.06929 38.0818 9.69775 38.0409 10.0605 37.6286C10.4228 37.2157 10.3819 36.5873 9.96957 36.2245L5.7977 32.5605C5.38486 32.1983 4.7564 32.2391 4.39414 32.6515L0.730146 36.8233C0.367374 37.2362 0.40825 37.8646 0.821094 38.2269C1.00963 38.393 1.24365 38.4742 1.47664 38.4742C1.75306 38.4742 2.02795 38.3597 2.22466 38.136L4.24852 35.8316C4.68282 41.0928 6.51098 46.0929 9.60169 50.417C13.093 55.3017 17.9112 58.9549 23.5347 60.9819C23.6461 61.0222 23.76 61.0411 23.8719 61.0411C24.2791 61.0411 24.6613 60.7887 24.8074 60.3835C24.9939 59.867 24.7262 59.2968 24.2091 59.1108Z" fill="black"/>
<path d="M44.6198 6.16508C44.1855 6.16508 43.7956 5.87537 43.6679 5.45997C43.5514 5.08085 43.6822 4.6537 43.9882 4.40283C44.675 3.83976 45.7387 4.43808 45.6033 5.31742C45.5293 5.79771 45.1077 6.16508 44.6198 6.16508Z" fill="black"/>
<path d="M44.6198 25.5856C44.212 25.5856 43.8395 25.3281 43.6924 24.9484C43.536 24.5463 43.6663 24.0773 44.0036 23.8095C44.7107 23.249 45.777 23.8984 45.5946 24.7854C45.5006 25.2443 45.0898 25.5856 44.6198 25.5856Z" fill="black"/>
<path d="M5.17122 6.16505C4.7359 6.16505 4.34809 5.8733 4.21984 5.45994C4.0967 5.06192 4.24897 4.60973 4.58721 4.36652C5.30509 3.85046 6.31881 4.49528 6.14713 5.36542C6.05618 5.82527 5.63823 6.16505 5.17122 6.16505Z" fill="black"/>
<path d="M5.17132 25.5856C4.73701 25.5856 4.34716 25.2933 4.21994 24.8795C4.09015 24.4569 4.26796 23.9863 4.63993 23.7503C5.38234 23.2792 6.35211 23.9843 6.13496 24.835C6.02357 25.2703 5.62095 25.5856 5.17132 25.5856Z" fill="black"/>
</svg>
