<svg width="54" height="67" viewBox="0 0 54 67" fill="none" xmlns="http://www.w3.org/2000/svg">
<path d="M14.1019 32.1926L9.40213 37.7935C9.34702 37.8588 9.29549 37.9262 9.24548 37.994C10.7609 36.9271 12.8595 36.9644 14.3463 38.2119C15.8628 39.4849 16.2495 41.6035 15.3969 43.299C15.4821 43.2138 15.5648 43.125 15.6439 43.0311L20.3437 37.4297L14.1019 32.1926Z" fill="#4374D3"/>
<path d="M14.2173 38.1129L15.226 36.9103C16.0883 35.8826 17.4813 35.5673 18.6671 36.023L14.102 32.1921L9.40215 37.7935C9.34704 37.8588 9.29551 37.9262 9.245 37.9935C10.7181 36.9572 12.7396 36.9669 14.2173 38.1129Z" fill="#3957C9"/>
<path d="M32.4394 16.6788C20.2677 6.46477 8.72401 0.1827 6.65549 2.64767C4.58698 5.11213 12.7773 15.3904 24.9491 25.6044C37.1209 35.8184 48.6645 42.1004 50.733 39.636C52.801 37.171 44.6107 26.8927 32.4394 16.6788Z" fill="#3957C9"/>
<path d="M6.65454 2.64436C6.68783 2.60451 6.72617 2.56971 6.76248 2.53238C6.72415 2.56718 6.68783 2.60451 6.65454 2.64436Z" fill="#1D319B"/>
<path d="M32.4395 16.6762C30.171 14.773 27.9244 13.0061 25.7569 11.407C30.1725 16.0711 32.3002 20.7474 30.6174 22.7532C28.9347 24.7584 23.9593 23.4747 18.5992 19.9362C20.5509 21.7929 22.6812 23.6992 24.9497 25.6029C37.122 35.8163 48.6666 42.0984 50.7346 39.6334C52.8031 37.1685 44.6123 26.8902 32.4395 16.6762Z" fill="#1D319B"/>
<path d="M27.3437 65.9649L14.9806 43.772C14.5596 43.0153 13.605 42.7444 12.8483 43.1653C12.0921 43.5868 11.8207 44.5409 12.2421 45.2971L24.0981 66.5807C25.1992 66.4302 26.2819 66.2241 27.3437 65.9649Z" fill="#B9E9FD"/>
<path d="M18.6268 53.4854C19.1839 53.1757 19.8299 53.1788 20.3641 53.4354L14.9806 43.7715C14.5596 43.0153 13.605 42.7444 12.8483 43.1648C12.0921 43.5863 11.8207 44.5409 12.2421 45.2971L17.6624 55.0274C17.6986 54.4039 18.041 53.812 18.6268 53.4854Z" fill="#83D3FC"/>
<path d="M10.7977 43.1515C10.0339 42.7439 9.0843 43.0332 8.67713 43.797L0 60.0711C0.828118 60.7206 1.68889 61.3293 2.57977 61.8962L11.4436 45.2721C11.8508 44.5078 11.5615 43.5587 10.7977 43.1515Z" fill="#E0F9FE"/>
<path d="M10.7977 43.1515C10.0339 42.7439 9.08431 43.0332 8.67714 43.797L4.47583 51.6766C4.99934 51.2996 5.71112 51.2266 6.31932 51.5506C6.92702 51.8751 7.26327 52.5073 7.24184 53.1522L11.4431 45.2721C11.8508 44.5078 11.5615 43.5587 10.7977 43.1515Z" fill="#B9E9FD"/>
<path d="M19.8779 58.7893H15.4368C14.7878 58.7893 14.2612 58.2633 14.2612 57.6137C14.2612 56.9647 14.7878 56.4381 15.4368 56.4381H19.8779C20.527 56.4381 21.0535 56.9647 21.0535 57.6137C21.0535 58.2633 20.527 58.7893 19.8779 58.7893Z" fill="#83D3FC"/>
<path d="M14.0388 58.7893H4.51617C3.86714 58.7893 3.34058 58.2633 3.34058 57.6137C3.34058 56.9647 3.86714 56.4381 4.51617 56.4381H14.0388C14.6883 56.4381 15.2144 56.9647 15.2144 57.6137C15.2144 58.2633 14.6883 58.7893 14.0388 58.7893Z" fill="#B9E9FD"/>
<path d="M50.7337 41.7494C50.2535 41.7494 49.7709 41.5872 49.3744 41.2545C48.5601 40.5708 48.3902 39.4049 48.931 38.5257C48.8769 38.0696 48.4019 36.0857 44.3843 31.2936C41.0447 27.3101 36.3194 22.6945 31.0793 18.2973C25.8391 13.9005 20.4734 10.0482 15.9706 7.4516C10.5533 4.3274 8.51749 4.20545 8.05827 4.22943C7.28628 4.91519 6.10865 4.94989 5.29431 4.26668C4.39935 3.51561 4.2825 2.18082 5.03357 1.28535C6.85105 -0.88011 10.5799 -0.320377 16.7696 3.04772C21.7597 5.76321 27.8081 10.0278 33.7999 15.0552C39.7916 20.0831 45.0415 25.2988 48.5825 29.7419C52.9741 35.2525 54.1732 38.8278 52.3557 40.9937C51.9373 41.4923 51.3373 41.7494 50.7337 41.7494Z" fill="#4374D3"/>
<path d="M24.9496 25.6023C14.7229 17.0216 7.30808 8.39603 6.42486 4.39575C3.25525 13.1071 6.11463 24.1242 14.0188 32.411L20.1432 37.5496C29.676 43.8944 41.0221 44.7976 49.0513 40.1636C44.9581 39.988 35.1758 34.1835 24.9496 25.6023Z" fill="#83D3FC"/>
<path d="M23.7898 24.6186C14.1662 16.369 7.27441 8.24296 6.42486 4.39575C3.25525 13.1071 6.11463 24.1242 14.0188 32.411L18.3696 36.0617C17.9762 34.3647 20.0891 30.0139 23.7898 24.6186Z" fill="#61B6FF"/>
<path d="M11.2094 13.8056C11.012 13.1872 11.3533 12.5259 11.9717 12.3285L43.1407 2.37726C43.7597 2.17928 44.4209 2.52063 44.6184 3.13955C44.8159 3.75796 44.4745 4.41923 43.8561 4.6167L12.6871 14.5679C12.0651 14.7664 11.4059 14.421 11.2094 13.8056Z" fill="#FACE7A"/>
<path d="M24.6017 9.10475C24.6017 8.75575 24.7277 8.43634 24.9369 8.18887L11.9717 12.3284C11.3533 12.5259 11.012 13.1872 11.2094 13.8056C11.4059 14.4209 12.0651 14.7664 12.6871 14.5679L25.5763 10.4528C25.0104 10.2655 24.6017 9.73337 24.6017 9.10475Z" fill="#FBB362"/>
<path d="M42.0325 29.246C41.3845 29.2087 40.8885 28.6536 40.9258 28.0051L42.3249 3.42989C42.3616 2.78188 42.9178 2.29001 43.5653 2.32318C44.2133 2.36042 44.7092 2.91557 44.672 3.56408L43.2729 28.1388C43.2367 28.7801 42.6897 29.2812 42.0325 29.246Z" fill="#FACE7A"/>
<path d="M42.7989 17.761C42.2601 17.761 41.7917 17.461 41.5508 17.0196L40.9258 28.0051C40.8886 28.6536 41.384 29.2087 42.0325 29.246C42.6897 29.2812 43.2367 28.7801 43.2729 28.1388L43.8934 17.2457C43.6326 17.5605 43.2392 17.761 42.7989 17.761Z" fill="#FBB362"/>
<path d="M29.5729 30.7726C28.9907 30.4848 28.7519 29.7797 29.0397 29.1975L41.3589 4.26972C41.6462 3.68805 42.3513 3.44875 42.9335 3.73652C43.5157 4.0243 43.7545 4.72945 43.4667 5.31163L31.1475 30.2394C30.8613 30.8185 30.1576 31.0614 29.5729 30.7726Z" fill="#FACE7A"/>
<path d="M36.2535 18.6753C35.534 18.6753 34.9411 18.1401 34.8473 17.4462L29.0397 29.1975C28.7519 29.7797 28.9907 30.4848 29.5729 30.7726C30.1576 31.0619 30.8613 30.8185 31.1475 30.2394L36.9545 18.4891C36.7474 18.607 36.5086 18.6753 36.2535 18.6753Z" fill="#FBB362"/>
<path d="M23.5893 27.2239C18.0818 22.6021 0.390281 6.81888 5.03346 1.28533C5.78504 0.390373 7.11932 0.273528 8.01479 1.0246C8.82913 1.70781 8.99955 2.87422 8.45819 3.75285C8.51227 4.20952 8.98781 6.19282 13.0049 10.9855C16.3444 14.9689 21.0698 19.5846 26.3099 23.9818C31.5501 28.3786 36.9158 32.2304 41.4191 34.8275C46.8353 37.9517 48.8717 38.0772 49.3309 38.0496C50.1029 37.3639 51.2805 37.3292 52.0949 38.0124C52.9903 38.7635 53.1072 40.0983 52.3556 40.9937C47.7124 46.5273 29.1683 31.9048 23.5893 27.2239Z" fill="#61B6FF"/>
<path d="M45.4904 1.03378C44.2168 -0.0351693 42.3182 0.131169 41.2493 1.40473C40.1803 2.67829 40.3467 4.57689 41.6202 5.64584C42.8938 6.71479 44.7924 6.54846 45.8614 5.2749C46.9303 4.00134 46.764 2.10274 45.4904 1.03378Z" fill="#FC7ACD"/>
<path d="M46.2216 1.94153C46.4043 2.54208 46.291 3.21968 45.8573 3.73604C45.1756 4.54834 43.9643 4.65447 43.152 3.97279C42.3397 3.29111 42.2341 2.0798 42.9153 1.2675C43.4214 0.664909 44.2189 0.452139 44.9287 0.660827C43.7061 0.0317019 42.1693 0.30468 41.2483 1.40221C40.1799 2.67576 40.3457 4.57488 41.6198 5.64383C42.8933 6.71227 44.7924 6.54644 45.8609 5.27288C46.6691 4.30955 46.7701 2.99007 46.2216 1.94153Z" fill="#F948B4"/>
<path d="M14.1388 44.5802C13.9505 43.7352 13.1127 43.2025 12.2677 43.3908C11.4228 43.5791 10.8906 44.4169 11.0789 45.2619L15.8425 66.6424C16.9145 66.772 18.0028 66.8491 19.1049 66.87L14.1388 44.5802Z" fill="#E0F9FE"/>
<path d="M14.7643 54.237C15.3935 54.0967 16.019 54.3278 16.4124 54.784L14.1388 44.5802C13.9505 43.7352 13.1127 43.2025 12.2677 43.3908C11.4228 43.5791 10.8906 44.4169 11.0789 45.2619L13.4433 55.8748C13.4479 55.1044 13.9806 54.4115 14.7643 54.237Z" fill="#B9E9FD"/>
<path d="M14.5791 37.9614C12.7473 36.424 10.0155 36.6628 8.47817 38.4951C6.94081 40.3274 7.17961 43.0587 9.01188 44.5965C10.8436 46.1339 13.5755 45.8951 15.1128 44.0628C16.6502 42.2306 16.4114 39.4992 14.5791 37.9614Z" fill="#5294E5"/>
<path d="M14.1821 43.7934C14.1591 43.5026 13.9662 43.2551 13.6861 43.1745C10.6885 42.3101 10.3634 40.0324 10.3772 39.0048C10.3813 38.7211 10.2119 38.4634 9.94861 38.3578C9.59042 38.2139 9.37612 38.0032 9.25264 37.7726C8.97252 37.9762 8.7123 38.2165 8.47963 38.4936C6.94228 40.3258 7.18107 43.0571 9.01334 44.595C10.6369 45.9573 12.9662 45.9237 14.5454 44.6236C14.2902 44.3654 14.203 44.0506 14.1821 43.7934Z" fill="#4374D3"/>
<path d="M11.7927 46.7814C10.5431 46.7814 9.28742 46.3594 8.25776 45.4956C5.93209 43.5439 5.62747 40.0636 7.57863 37.7379C9.5308 35.4122 13.0106 35.1076 15.3363 37.0593C17.6625 39.0109 17.9666 42.4913 16.0149 44.817C14.9276 46.113 13.3653 46.7814 11.7927 46.7814ZM11.7993 38.1236C10.8982 38.1236 10.0033 38.5068 9.37977 39.2492C8.26184 40.582 8.43634 42.576 9.76909 43.6944C11.1018 44.8129 13.0958 44.6384 14.2138 43.3056C15.3322 41.9729 15.1577 39.9789 13.825 38.8604C13.2351 38.3655 12.5152 38.1236 11.7993 38.1236Z" fill="#61B6FF"/>
<path d="M15.7557 45.1027C14.5036 44.993 14.2219 44.2874 14.1821 43.7934C14.1729 43.673 14.1326 43.5608 14.0704 43.4638C12.9315 44.6496 11.0467 44.7665 9.76905 43.6945C8.43631 42.576 8.26181 40.582 9.37974 39.2492C9.62159 38.9615 9.90478 38.7278 10.213 38.5492C10.1425 38.467 10.0538 38.3997 9.94866 38.3579C8.64653 37.8354 9.23381 36.4251 9.24453 36.399C8.62408 36.7225 8.05567 37.1695 7.57859 37.7379C5.62744 40.0641 5.93154 43.5439 8.25721 45.4956C9.28739 46.3594 10.5431 46.7814 11.7922 46.7814C13.2443 46.7814 14.6867 46.2104 15.7557 45.1027Z" fill="#5294E5"/>
<path d="M25.5013 23.2976C20.5851 19.1086 16.1716 14.7634 13.005 10.9855C8.98739 6.19286 8.51235 4.20956 8.45827 3.7529C8.99963 2.87427 8.82921 1.70786 8.01487 1.02465C7.1194 0.273574 5.78512 0.389908 5.03354 1.28538C0.626605 6.53779 16.3404 21.0235 22.6593 26.4346C22.1914 24.6681 23.6884 23.0058 25.5013 23.2976Z" fill="#5294E5"/>
</svg>
