<svg width="68" height="68" viewBox="0 0 68 68" fill="none" xmlns="http://www.w3.org/2000/svg">
<path d="M18.8679 49.7091L38.254 44.5146L23.5276 29.7881L18.3331 49.1743C18.246 49.499 18.5432 49.7961 18.8679 49.7091Z" fill="#E4F6FF"/>
<path d="M34.6907 40.9512L19.4416 45.0372L18.331 49.1823C18.2449 49.5035 18.5388 49.7974 18.86 49.7114L38.2542 44.5147L34.6907 40.9512Z" fill="#CBE2FF"/>
<path d="M30.8979 37.1585L18.4503 49.6062C18.553 49.7044 18.7031 49.7533 18.8599 49.7113L38.2541 44.5146L30.8979 37.1585Z" fill="#CBE2FF"/>
<path d="M34.6907 40.9512L24.329 43.7276L18.4503 49.6061C18.553 49.7043 18.7031 49.7532 18.8599 49.7111L38.2541 44.5145L34.6907 40.9512Z" fill="#9DC6FB"/>
<path d="M60.941 6.56625L11.1847 19.8984C10.8601 19.9854 10.7513 20.3913 10.989 20.6289L47.4131 57.053C47.6507 57.2907 48.0566 57.1819 48.1437 56.8573L61.4759 7.10109C61.5629 6.77641 61.2657 6.47924 60.941 6.56625Z" fill="#E4F6FF"/>
<path d="M60.9491 6.56409L54.539 8.28171L42.7264 52.3664L47.4189 57.0589C47.6541 57.2941 48.0555 57.1864 48.1415 56.8652L61.478 7.09314C61.5641 6.77195 61.2703 6.47806 60.9491 6.56409Z" fill="#CBE2FF"/>
<path d="M61.4779 6.8678C61.4369 6.71802 61.3158 6.59989 61.1648 6.56223L25.7751 35.4151L32.6271 42.2671L61.4779 6.8678Z" fill="#9DC6FB"/>
<path d="M61.1647 6.56223L49.1527 16.3555L30.0967 39.7368L32.627 42.2671L61.4778 6.8678C61.4368 6.71802 61.3157 6.59989 61.1647 6.56223Z" fill="#80B4FB"/>
<path d="M46.7875 24.1344C46.7875 18.5707 42.2773 14.0604 36.7136 14.0604C31.1499 14.0604 26.6396 18.5707 26.6396 24.1344C26.6396 29.6981 31.1499 34.2083 36.7136 34.2083C37.6871 34.2083 38.6281 34.0698 39.5186 33.8121L46.7562 24.9326C46.7767 24.6692 46.7875 24.403 46.7875 24.1344Z" fill="#FFE07D"/>
<path d="M46.7876 24.1344C46.7876 20.5641 44.9301 17.4276 42.129 15.6385C43.128 17.2024 43.7071 19.0605 43.7071 21.0539C43.7071 26.6176 39.1969 31.1279 33.6332 31.1279C31.6398 31.1279 29.7818 30.5487 28.2178 29.5498C30.007 32.351 33.1433 34.2083 36.7136 34.2083C37.6871 34.2083 38.6281 34.0698 39.5186 33.8121L46.7562 24.9326C46.7768 24.6692 46.7876 24.403 46.7876 24.1344Z" fill="#FFD064"/>
<path d="M62.2796 6.75949C62.1749 6.06308 61.4142 5.58839 60.7394 5.78185L19.5773 16.8113C19.1453 16.927 18.8888 17.3711 19.0045 17.8031C19.1204 18.235 19.5645 18.4918 19.9964 18.3757L29.7747 15.7557C27.3663 17.7537 25.8297 20.7678 25.8297 24.1344C25.8297 27.1063 27.0274 29.8034 28.965 31.7695L25.8304 34.3251L12.0188 20.5133L16.3225 19.3601C16.7545 19.2443 17.0108 18.8003 16.8951 18.3683C16.7794 17.9363 16.3352 17.6794 15.9031 17.7957L10.9672 19.1183C10.54 19.2327 10.2035 19.5692 10.089 19.9964C9.97461 20.4236 10.0978 20.8831 10.4104 21.1958L21.9101 32.6954L17.5486 48.9727C17.2839 49.8596 18.186 50.7615 19.0695 50.4935L35.3466 46.132L46.8464 57.6317C47.4845 58.3072 48.7103 57.976 48.9237 57.075L54.3151 36.9538C54.431 36.5218 54.1745 36.0776 53.7425 35.962C53.3104 35.8458 52.8663 36.1026 52.7507 36.5346L47.5286 56.0234L33.717 42.2116L59.8072 10.1995L53.7465 32.8186C53.6306 33.2506 53.8871 33.6948 54.3191 33.8104C54.7396 33.9263 55.1967 33.6736 55.3109 33.2378C55.3343 32.7017 62.4995 7.28134 62.2796 6.75949ZM57.826 8.23933L48.0119 16.2407C47.6653 16.5234 47.6133 17.0336 47.896 17.3802C48.1798 17.7283 48.691 17.7776 49.0354 17.4961L57.1886 10.8489L47.5067 22.7282C46.893 17.992 43.2228 14.2018 38.5455 13.4056L57.826 8.23933ZM36.7136 14.8703C41.8218 14.8703 45.9777 19.0261 45.9777 24.1344C45.9777 24.295 45.9733 24.4574 45.965 24.62L39.0535 33.1003C38.2924 33.2983 37.5064 33.3987 36.7137 33.3987C31.6055 33.3987 27.4496 29.2428 27.4496 24.1345C27.4496 19.0262 31.6053 14.8703 36.7136 14.8703ZM28.0629 38.8483L19.6966 47.2147L23.2327 34.0179L28.0629 38.8483ZM20.8669 48.3351L29.2084 39.9936L34.0243 44.8096L20.8669 48.3351ZM26.9816 35.4763L30.2023 32.8505C32.0193 34.2114 34.274 35.0183 36.7136 35.0183C36.9813 35.0183 37.2484 35.008 37.5144 34.9886L32.5658 41.0605L26.9816 35.4763Z" fill="black"/>
<path d="M18.2794 54.2714L12.2984 60.2524C11.9821 60.5688 11.9821 61.0815 12.2984 61.3979C12.6146 61.7141 13.1274 61.7141 13.4437 61.3979L19.4247 55.4168C19.741 55.1005 19.741 54.5878 19.4247 54.2714C19.1085 53.9552 18.5957 53.9552 18.2794 54.2714Z" fill="black"/>
<path d="M7.21703 55.9811C7.42424 55.9811 7.63156 55.902 7.78965 55.744L13.7707 49.7629C14.087 49.4465 14.087 48.9338 13.7707 48.6175C13.4544 48.3013 12.9416 48.3013 12.6254 48.6175L6.64431 54.5985C6.32804 54.9149 6.32804 55.4276 6.64431 55.744C6.8025 55.902 7.00971 55.9811 7.21703 55.9811Z" fill="black"/>
<path d="M13.9175 54.1246C13.6013 53.8085 13.0885 53.8085 12.7722 54.1246L6.79116 60.1057C6.47489 60.4221 6.47489 60.9347 6.79116 61.2511C7.10744 61.5673 7.62022 61.5673 7.9365 61.2511L13.9175 55.2701C14.2338 54.9537 14.2338 54.441 13.9175 54.1246Z" fill="black"/>
<path d="M33.4249 29.2865C34.3664 29.9023 35.0161 30.0956 35.8371 30.1488V30.8928C35.8371 31.34 36.1996 31.7026 36.6469 31.7026C37.0942 31.7026 37.4568 31.34 37.4568 30.8928V30.0814C39.1254 29.7297 40.1006 28.3434 40.3185 27.0471C40.6021 25.36 39.72 23.8932 38.0713 23.3104C37.8693 23.239 37.6629 23.1643 37.4569 23.0869V19.6954C37.9448 19.83 38.2345 20.0741 38.2623 20.0984C38.5913 20.396 39.0994 20.3733 39.4006 20.0466C39.7039 19.7178 39.6832 19.2055 39.3544 18.9023C39.3119 18.8632 38.6087 18.2303 37.4569 18.0404V17.3764C37.4569 16.9291 37.0943 16.5665 36.647 16.5665C36.1997 16.5665 35.8372 16.9291 35.8372 17.3764V18.1005C35.7415 18.1227 35.6449 18.1472 35.5463 18.1769C34.4578 18.5049 33.6445 19.4357 33.424 20.6064C33.2225 21.6757 33.5665 22.7081 34.3217 23.3005C34.7084 23.6038 35.1868 23.8817 35.8372 24.1736V28.525C35.2867 28.4762 34.9219 28.3304 34.3117 27.9312C33.9375 27.6864 33.4355 27.7913 33.1906 28.1655C32.9457 28.5396 33.0506 29.0416 33.4249 29.2865ZM35.3213 22.0257C35.0477 21.8112 34.9278 21.3717 35.0156 20.9059C35.0917 20.5022 35.3473 20.0221 35.8371 19.7956V22.3636C35.6448 22.2549 35.47 22.1423 35.3213 22.0257ZM37.5314 24.8374C38.8593 25.3067 38.7777 26.4418 38.7212 26.7785C38.6142 27.4148 38.1847 28.0896 37.4568 28.3884V24.8105C37.4821 24.8196 37.5059 24.8283 37.5314 24.8374Z" fill="black"/>
</svg>
