<svg width="64" height="67" viewBox="0 0 64 67" fill="none" xmlns="http://www.w3.org/2000/svg">
<path d="M32 64C49.6731 64 64 49.6731 64 32C64 14.3269 49.6731 0 32 0C14.3269 0 0 14.3269 0 32C0 49.6731 14.3269 64 32 64Z" fill="#FFDD40"/>
<path d="M53.3323 7.87982V29.3877H27.2098V7.87982C27.2098 6.91721 27.9896 6.13876 28.9509 6.13876H51.5912C51.8028 6.13876 52.0066 6.17664 52.1947 6.24587C52.8595 6.49142 53.3323 7.13011 53.3323 7.87982Z" fill="#38C674"/>
<path d="M49.8489 8.75101H30.6933C30.2127 8.75101 29.8221 9.14023 29.8221 9.62089V29.3877H31.1283V14.4104C33.5328 14.4104 35.4816 12.4604 35.4816 10.0571H45.0607C45.0607 12.4604 47.0094 14.4104 49.414 14.4104V29.3877H50.7201V9.62089C50.7201 9.14023 50.3296 8.75101 49.8489 8.75101Z" fill="#21B75D"/>
<path d="M48.1078 29.3877H32.4343C32.4343 25.0592 35.9426 21.551 40.2711 21.551C44.5996 21.551 48.1078 25.0592 48.1078 29.3877Z" fill="#21B75D"/>
<path d="M10.6678 7.87982V29.3877H36.7903V7.87982C36.7903 6.91721 36.0105 6.13876 35.0492 6.13876H12.4089C12.1973 6.13876 11.9936 6.17664 11.8055 6.24587C11.1407 6.49142 10.6678 7.13011 10.6678 7.87982Z" fill="#21B75D"/>
<path d="M13.28 9.62089V29.3877H14.5862V14.4104C16.9907 14.4104 18.9395 12.4604 18.9395 10.0571H28.5186C28.5186 12.4604 30.4673 14.4104 32.8719 14.4104V29.3877H34.178V9.62089C34.178 9.14023 33.7875 8.75101 33.3068 8.75101H14.1512C13.6706 8.75101 13.28 9.14023 13.28 9.62089Z" fill="#13A54E"/>
<path d="M15.8923 29.3877H31.5658C31.5658 25.0592 28.0576 21.551 23.7291 21.551C19.4006 21.551 15.8923 25.0592 15.8923 29.3877Z" fill="#13A54E"/>
<path d="M45.0612 7.87982V29.3877H18.9387V7.87982C18.9387 6.91721 19.7185 6.13876 20.6798 6.13876H43.3201C43.5317 6.13876 43.7355 6.17664 43.9235 6.24587C44.5884 6.49142 45.0612 7.13011 45.0612 7.87982Z" fill="#49D88B"/>
<path d="M28.9515 6.13876H20.6798C19.7185 6.13876 18.9387 6.91721 18.9387 7.87982V29.3877H27.2104V7.87982C27.2104 6.91721 27.9902 6.13876 28.9515 6.13876Z" fill="#38C674"/>
<path d="M41.5777 8.75101H22.4221C21.9414 8.75101 21.5509 9.14023 21.5509 9.62089V29.3877H22.857V14.4104C25.2616 14.4104 27.2103 12.4604 27.2103 10.0571H36.7894C36.7894 12.4604 38.7382 14.4104 41.1427 14.4104V29.3877H42.4489V9.62089C42.4489 9.14023 42.0583 8.75101 41.5777 8.75101Z" fill="#21B75D"/>
<path d="M39.8367 29.3877H24.1632C24.1632 25.0592 27.6715 21.551 31.9999 21.551C36.3284 21.551 39.8367 25.0592 39.8367 29.3877Z" fill="#21B75D"/>
<path d="M38.5306 29.3878H25.4694C25.4694 25.7802 28.3938 22.8571 32 22.8571C35.6062 22.8571 38.5306 25.7802 38.5306 29.3878Z" fill="#49D88B"/>
<path d="M32.653 13.322V18.2853C32.653 18.6459 32.3606 18.9384 32 18.9384C31.6394 18.9384 31.3469 18.6459 31.3469 18.2853V13.322C31.3469 12.9614 31.6394 12.669 32 12.669C32.3606 12.669 32.653 12.9613 32.653 13.322Z" fill="#21B75D"/>
<path d="M31.9999 17.9806C33.2022 17.9806 34.1768 17.0059 34.1768 15.8037C34.1768 14.6014 33.2022 13.6267 31.9999 13.6267C30.7976 13.6267 29.823 14.6014 29.823 15.8037C29.823 17.0059 30.7976 17.9806 31.9999 17.9806Z" fill="#21B75D"/>
<path d="M52.898 66.8735H11.1021C8.2167 66.8735 5.87756 64.5343 5.87756 61.649V30.302C5.87756 27.4167 8.2167 25.0775 11.1021 25.0775H52.898C55.7833 25.0775 58.1225 27.4167 58.1225 30.302V61.649C58.1225 64.5343 55.7833 66.8735 52.898 66.8735Z" fill="#3C5082"/>
<path d="M13.7143 61.649V30.302C13.7143 27.4167 16.0534 25.0775 18.9388 25.0775H11.1021C8.2167 25.0775 5.87756 27.4167 5.87756 30.302V61.649C5.87756 64.5343 8.2167 66.8735 11.1021 66.8735H18.9388C16.0534 66.8735 13.7143 64.5343 13.7143 61.649Z" fill="#2D3C6B"/>
<path d="M11.102 64.9143C9.30149 64.9143 7.83667 63.4495 7.83667 61.649V30.302C7.83667 28.5016 9.30149 27.0367 11.102 27.0367H52.8979C54.6984 27.0367 56.1632 28.5016 56.1632 30.302V61.649C56.1632 63.4495 54.6984 64.9143 52.8979 64.9143H11.102Z" fill="#4B6496"/>
<path d="M14.8617 27.0367H11.102C9.30149 27.0367 7.83667 28.5016 7.83667 30.302V61.649C7.83667 63.4495 9.30149 64.9143 11.102 64.9143H14.8617C14.1443 64.0197 13.7142 62.8848 13.7142 61.649V30.302C13.7142 29.0662 14.1443 27.9313 14.8617 27.0367Z" fill="#3C5082"/>
<path d="M51.5023 62.9551H47.5219C47.1612 62.9551 46.8689 62.6628 46.8689 62.3021C46.8689 61.9413 47.1612 61.649 47.5219 61.649H51.5025C51.8632 61.649 52.1555 61.9413 52.1555 62.3021C52.1555 62.6628 51.8631 62.9551 51.5023 62.9551ZM45.5318 62.9551H41.5513C41.1905 62.9551 40.8982 62.6628 40.8982 62.3021C40.8982 61.9413 41.1905 61.649 41.5513 61.649H45.5318C45.8926 61.649 46.1849 61.9413 46.1849 62.3021C46.1849 62.6628 45.8924 62.9551 45.5318 62.9551ZM39.5611 62.9551H35.5807C35.22 62.9551 34.9277 62.6628 34.9277 62.3021C34.9277 61.9413 35.22 61.649 35.5807 61.649H39.5611C39.9219 61.649 40.2142 61.9413 40.2142 62.3021C40.2142 62.6628 39.9217 62.9551 39.5611 62.9551ZM33.5906 62.9551H29.61C29.2494 62.9551 28.957 62.6628 28.957 62.3021C28.957 61.9413 29.2494 61.649 29.61 61.649H33.5906C33.9513 61.649 34.2436 61.9413 34.2436 62.3021C34.2436 62.6628 33.9512 62.9551 33.5906 62.9551ZM27.6199 62.9551H23.6395C23.2789 62.9551 22.9864 62.6628 22.9864 62.3021C22.9864 61.9413 23.2789 61.649 23.6395 61.649H27.6199C27.9805 61.649 28.273 61.9413 28.273 62.3021C28.273 62.6628 27.9805 62.9551 27.6199 62.9551ZM21.6492 62.9551H17.6688C17.3082 62.9551 17.0158 62.6628 17.0158 62.3021C17.0158 61.9413 17.3082 61.649 17.6688 61.649H21.6492C22.0098 61.649 22.3023 61.9413 22.3023 62.3021C22.3023 62.6628 22.0098 62.9551 21.6492 62.9551ZM15.6787 62.9551H11.7551C11.7257 62.9551 11.6964 62.9545 11.6673 62.953C11.3071 62.9361 11.0287 62.6302 11.0459 62.2699C11.063 61.9096 11.3672 61.632 11.7291 61.6485L11.7551 61.649H15.6787C16.0393 61.649 16.3317 61.9413 16.3317 62.3021C16.3317 62.6628 16.0393 62.9551 15.6787 62.9551ZM53.3105 62.4036C53.1798 62.4036 53.0479 62.3645 52.9332 62.2831C52.6391 62.0745 52.5697 61.6669 52.7783 61.3726C52.8567 61.2624 52.8979 61.1322 52.8979 60.9959V57.8204C52.8979 57.4596 53.1902 57.1673 53.551 57.1673C53.9118 57.1673 54.2041 57.4596 54.2041 57.8204V60.9959C54.2041 61.4044 54.0795 61.7959 53.8437 62.1284C53.7165 62.3078 53.5151 62.4036 53.3105 62.4036ZM10.449 61.6517C10.0883 61.6517 9.7959 61.362 9.7959 61.0014V57.0157C9.7959 56.6549 10.0883 56.3626 10.449 56.3626C10.8096 56.3626 11.102 56.6549 11.102 57.0157V60.9959C11.102 61.3567 10.8096 61.6517 10.449 61.6517ZM53.551 56.483C53.1902 56.483 52.8979 56.1907 52.8979 55.83V51.8496C52.8979 51.4888 53.1902 51.1965 53.551 51.1965C53.9118 51.1965 54.2041 51.4888 54.2041 51.8496V55.83C54.2041 56.1907 53.9118 56.483 53.551 56.483ZM10.449 55.6783C10.0883 55.6783 9.7959 55.386 9.7959 55.0253V51.0449C9.7959 50.6841 10.0883 50.3918 10.449 50.3918C10.8096 50.3918 11.102 50.6841 11.102 51.0449V55.0253C11.102 55.386 10.8096 55.6783 10.449 55.6783ZM53.551 50.5125C53.1902 50.5125 52.8979 50.2202 52.8979 49.8594V45.8789C52.8979 45.5181 53.1902 45.2258 53.551 45.2258C53.9118 45.2258 54.2041 45.5181 54.2041 45.8789V49.8594C54.2041 50.2202 53.9118 50.5125 53.551 50.5125ZM10.449 49.7078C10.0883 49.7078 9.7959 49.4155 9.7959 49.0547V45.0743C9.7959 44.7136 10.0883 44.4212 10.449 44.4212C10.8096 44.4212 11.102 44.7136 11.102 45.0743V49.0548C11.102 49.4155 10.8096 49.7078 10.449 49.7078ZM53.551 44.5418C53.1902 44.5418 52.8979 44.2495 52.8979 43.8887V39.9083C52.8979 39.5476 53.1902 39.2553 53.551 39.2553C53.9118 39.2553 54.2041 39.5476 54.2041 39.9083V43.8887C54.2041 44.2495 53.9118 44.5418 53.551 44.5418ZM10.449 43.7371C10.0883 43.7371 9.7959 43.4448 9.7959 43.084V39.1035C9.7959 38.7427 10.0883 38.4504 10.449 38.4504C10.8096 38.4504 11.102 38.7427 11.102 39.1035V43.084C11.102 43.4448 10.8096 43.7371 10.449 43.7371ZM53.551 38.5713C53.1902 38.5713 52.8979 38.2789 52.8979 37.9182V33.9378C52.8979 33.577 53.1902 33.2847 53.551 33.2847C53.9118 33.2847 54.2041 33.577 54.2041 33.9378V37.9182C54.2041 38.2788 53.9118 38.5713 53.551 38.5713ZM10.449 37.7664C10.0883 37.7664 9.7959 37.4741 9.7959 37.1134V33.133C9.7959 32.7722 10.0883 32.4799 10.449 32.4799C10.8096 32.4799 11.102 32.7722 11.102 33.133V37.1134C11.102 37.4741 10.8096 37.7664 10.449 37.7664ZM53.551 32.6007C53.1902 32.6007 52.8979 32.3084 52.8979 31.9476V30.9551C52.8979 30.595 52.605 30.3021 52.2449 30.3021H51.3093C50.9486 30.3021 50.6562 30.0098 50.6562 29.649C50.6562 29.2883 50.9486 28.9959 51.3093 28.9959H52.2449C53.3252 28.9959 54.2041 29.8748 54.2041 30.9551V31.9476C54.2041 32.3083 53.9118 32.6007 53.551 32.6007ZM10.449 31.7959C10.0883 31.7959 9.7959 31.5036 9.7959 31.1428V30.9551C9.7959 29.8748 10.6748 28.9959 11.7551 28.9959H13.4954C13.856 28.9959 14.1484 29.2883 14.1484 29.649C14.1484 30.0098 13.856 30.3021 13.4954 30.3021H11.7551C11.395 30.3021 11.102 30.595 11.102 30.9551V31.1428C11.102 31.5034 10.8096 31.7959 10.449 31.7959ZM49.3192 30.3021H45.3388C44.978 30.3021 44.6857 30.0098 44.6857 29.649C44.6857 29.2883 44.978 28.9959 45.3388 28.9959H49.3192C49.6799 28.9959 49.9722 29.2883 49.9722 29.649C49.9722 30.0098 49.6798 30.3021 49.3192 30.3021ZM43.3485 30.3021H39.3681C39.0073 30.3021 38.715 30.0098 38.715 29.649C38.715 29.2883 39.0073 28.9959 39.3681 28.9959H43.3485C43.7092 28.9959 44.0015 29.2883 44.0015 29.649C44.0015 30.0098 43.7091 30.3021 43.3485 30.3021ZM37.3779 30.3021H33.3974C33.0366 30.3021 32.7443 30.0098 32.7443 29.649C32.7443 29.2883 33.0366 28.9959 33.3974 28.9959H37.3779C37.7387 28.9959 38.031 29.2883 38.031 29.649C38.031 30.0098 37.7387 30.3021 37.3779 30.3021ZM31.4073 30.3021H27.4269C27.0662 30.3021 26.7738 30.0098 26.7738 29.649C26.7738 29.2883 27.0662 28.9959 27.4269 28.9959H31.4073C31.7679 28.9959 32.0603 29.2883 32.0603 29.649C32.0603 30.0098 31.7679 30.3021 31.4073 30.3021ZM25.4366 30.3021H21.4562C21.0956 30.3021 20.8031 30.0098 20.8031 29.649C20.8031 29.2883 21.0956 28.9959 21.4562 28.9959H25.4366C25.7972 28.9959 26.0896 29.2883 26.0896 29.649C26.0896 30.0098 25.7972 30.3021 25.4366 30.3021ZM19.466 30.3021H15.4856C15.125 30.3021 14.8326 30.0098 14.8326 29.649C14.8326 29.2883 15.125 28.9959 15.4856 28.9959H19.466C19.8267 28.9959 20.1191 29.2883 20.1191 29.649C20.1191 30.0098 19.8267 30.3021 19.466 30.3021Z" fill="#2D3C6B"/>
<path d="M58.1225 53.8122H42.449C41.0063 53.8122 39.8368 52.6427 39.8368 51.2V40.751C39.8368 39.3083 41.0063 38.1388 42.449 38.1388H58.1225C59.5652 38.1388 60.7348 39.3083 60.7348 40.751V51.2C60.7348 52.6427 59.5652 53.8122 58.1225 53.8122Z" fill="#3C5082"/>
<path d="M47.6735 51.2V40.751C47.6735 39.3083 48.843 38.1388 50.2858 38.1388H42.449C41.0063 38.1388 39.8368 39.3083 39.8368 40.751V51.2C39.8368 52.6427 41.0063 53.8122 42.449 53.8122H50.2858C48.843 53.8122 47.6735 52.6427 47.6735 51.2Z" fill="#2D3C6B"/>
<path d="M47.6735 51.2C50.5589 51.2 52.898 48.8609 52.898 45.9755C52.898 43.0901 50.5589 40.751 47.6735 40.751C44.7881 40.751 42.449 43.0901 42.449 45.9755C42.449 48.8609 44.7881 51.2 47.6735 51.2Z" fill="#FFDD40"/>
<path d="M47.6735 45.9755C47.6735 44.0421 48.7245 42.3552 50.2857 41.4518C49.5171 41.0069 48.6254 40.751 47.6735 40.751C44.7881 40.751 42.449 43.0902 42.449 45.9755C42.449 48.8609 44.7881 51.2 47.6735 51.2C48.6254 51.2 49.5171 50.9442 50.2857 50.4993C48.7245 49.5958 47.6735 47.909 47.6735 45.9755Z" fill="#FFC839"/>
<path d="M47.6735 49.2408C49.4769 49.2408 50.9388 47.7789 50.9388 45.9755C50.9388 44.1721 49.4769 42.7102 47.6735 42.7102C45.8701 42.7102 44.4082 44.1721 44.4082 45.9755C44.4082 47.7789 45.8701 49.2408 47.6735 49.2408Z" fill="#FFC839"/>
<path d="M48.6966 49.0757C48.055 48.2085 47.6735 47.1373 47.6735 45.9755C47.6735 44.8137 48.055 43.7426 48.6966 42.8753C48.3746 42.7687 48.0309 42.7102 47.6735 42.7102C45.873 42.7102 44.4082 44.175 44.4082 45.9755C44.4082 47.776 45.873 49.2408 47.6735 49.2408C48.0309 49.2408 48.3746 49.1823 48.6966 49.0757Z" fill="#FFB332"/>
</svg>
