<svg width="30" height="32" viewBox="0 0 30 32" fill="none" xmlns="http://www.w3.org/2000/svg">
<circle cx="12.9545" cy="12.9545" r="12.9545" fill="#E5ECFF"/>
<path d="M28.7572 19.7304L24.7299 13.4171C25.3005 13.1172 25.6908 12.5188 25.6908 11.8307C25.6908 11.0775 25.2233 10.4318 24.5633 10.1675L25.7834 5.90202C25.836 5.71799 25.7847 5.51996 25.6494 5.38461C24.8378 4.57308 23.5173 4.57308 22.7058 5.38461C22.5116 5.57875 22.2535 5.68565 21.979 5.68565C21.7045 5.68565 21.4464 5.57875 21.251 5.38335L21.2484 5.38077C20.4397 4.57197 19.1216 4.56971 18.3096 5.37597L18.2945 5.39104C17.8937 5.78896 17.2428 5.7878 16.8435 5.38846L16.8397 5.38461C16.0281 4.57308 14.7076 4.57308 13.8961 5.38461C13.7607 5.52006 13.7094 5.71826 13.7621 5.90238L14.9848 10.1665C14.3234 10.4301 13.8546 11.0765 13.8546 11.8307C13.8546 12.5189 14.2449 13.1173 14.8155 13.4171L10.7882 19.7304C9.23011 22.1728 9.13139 25.1476 10.5241 27.688C11.9168 30.2283 14.4778 31.745 17.3749 31.745H22.1704C25.0675 31.745 27.6285 30.2283 29.0213 27.688C30.414 25.1476 30.3153 22.1728 28.7572 19.7304ZM16.0946 6.12966L16.0984 6.13351C16.9072 6.94225 18.2254 6.94446 19.0373 6.1383L19.0524 6.12323C19.4531 5.72532 20.104 5.72648 20.5045 6.12703L20.5071 6.12961C21.3187 6.94114 22.6392 6.94114 23.4508 6.12961C23.781 5.79939 24.2818 5.74128 24.6721 5.95528L23.504 10.0394H16.0446L14.8734 5.95523C15.2637 5.74128 15.7644 5.79949 16.0946 6.12966ZM28.0974 27.1815C26.8925 29.3792 24.6769 30.6913 22.1705 30.6913H17.3749C14.8686 30.6913 12.6529 29.3793 11.4481 27.1815C10.2432 24.9837 10.3286 22.4102 11.6765 20.2971L15.9346 13.6219H17.402C17.6929 13.6219 17.9288 13.386 17.9288 13.0951C17.9288 12.8041 17.6929 12.5682 17.402 12.5682H15.6458C15.2391 12.5682 14.9083 12.2374 14.9083 11.8307C14.9083 11.424 15.2391 11.0931 15.6458 11.0931H15.6476H23.8996C24.3063 11.0931 24.6371 11.424 24.6371 11.8307C24.6371 12.2374 24.3063 12.5682 23.8996 12.5682H22.1435C21.8525 12.5682 21.6166 12.8041 21.6166 13.0951C21.6166 13.386 21.8525 13.6219 22.1435 13.6219H23.6108L27.8689 20.2971C29.2168 22.4101 29.3022 24.9837 28.0974 27.1815Z" fill="#416CEF"/>
<path d="M20.7014 21.978C20.5693 21.9313 20.4343 21.8826 20.2995 21.8321V19.4444C20.6567 19.5495 20.8952 19.7199 20.9053 19.7273C21.1371 19.9009 21.4659 19.8549 21.641 19.6237C21.8167 19.3918 21.7711 19.0614 21.5392 18.8856C21.5083 18.8622 21.0184 18.4986 20.2995 18.3609V17.8366C20.2995 17.5456 20.0636 17.3098 19.7726 17.3098C19.4817 17.3098 19.2458 17.5456 19.2458 17.8366V18.3571C19.1566 18.3742 19.0661 18.3959 18.9744 18.4235C18.233 18.6463 17.6787 19.2803 17.528 20.0783C17.3905 20.8069 17.6239 21.5096 18.1372 21.9122C18.4158 22.1307 18.7639 22.3302 19.2458 22.5421V25.5975C18.8309 25.5713 18.5534 25.4769 18.0907 25.1742C17.8473 25.0149 17.5207 25.0832 17.3614 25.3267C17.2021 25.5702 17.2704 25.8967 17.5139 26.056C18.1886 26.4973 18.6454 26.6223 19.2458 26.6519V27.1967C19.2458 27.4877 19.4817 27.7235 19.7726 27.7235C20.0636 27.7235 20.2995 27.4877 20.2995 27.1967V26.5972C21.4276 26.3501 22.0874 25.4087 22.2355 24.528C22.429 23.3767 21.8269 22.3758 20.7014 21.978ZM18.7875 21.0831C18.585 20.9243 18.4991 20.6141 18.5634 20.2737C18.6225 19.9607 18.8331 19.5832 19.2458 19.4436V21.373C19.0726 21.2806 18.9163 21.1841 18.7875 21.0831ZM21.1963 24.3533C21.1205 24.8045 20.8159 25.2831 20.2994 25.4946V22.9532C20.3166 22.9593 20.3329 22.9652 20.3503 22.9714C21.2948 23.3052 21.2367 24.1135 21.1963 24.3533Z" fill="#416CEF"/>
<path d="M19.7727 13.6219C19.9112 13.6219 20.0472 13.5655 20.1452 13.4675C20.2431 13.3696 20.2995 13.2336 20.2995 13.0951C20.2995 12.9565 20.2431 12.8206 20.1452 12.7226C20.0472 12.6246 19.9112 12.5682 19.7727 12.5682C19.6341 12.5682 19.4982 12.6246 19.4002 12.7226C19.3022 12.8206 19.2458 12.9565 19.2458 13.0951C19.2458 13.2336 19.3022 13.3696 19.4002 13.4675C19.4982 13.5655 19.6341 13.6219 19.7727 13.6219Z" fill="#416CEF"/>
</svg>
