<svg clip-rule="evenodd" fill-rule="evenodd" height="512" stroke-linejoin="round" stroke-miterlimit="2" viewBox="0 0 64 64" width="512" xmlns="http://www.w3.org/2000/svg"><g transform="translate(-320 -64)"><g id="Icon"><g transform="matrix(.707 -.707 .707 .707 121.442 -7.196)"><path d="m116 224c0-2.209-1.791-4-4-4-9.04 0-30.96 0-40 0-2.209 0-4 1.791-4 4v24c0 2.209 1.791 4 4 4h40c2.209 0 4-1.791 4-4 0-6.148 0-17.852 0-24z" fill="#505050"/></g><g transform="matrix(.707 -.707 .707 .707 121.442 -7.196)"><path d="m68 228h48v8h-48z" fill="#e0e0e0"/></g><g transform="translate(256 -128)"><g><path d="m116 224c0-2.209-1.791-4-4-4-9.04 0-30.96 0-40 0-2.209 0-4 1.791-4 4v24c0 2.209 1.791 4 4 4h40c2.209 0 4-1.791 4-4 0-6.148 0-17.852 0-24z" fill="#ff6c5c"/></g><g><path d="m116 224c0-2.209-1.791-4-4-4-9.04 0-30.96 0-40 0-2.209 0-4 1.791-4 4v24c0 2.209 1.791 4 4 4h40c2.209 0 4-1.791 4-4 0-6.148 0-17.852 0-24z" fill="#ff6c5c"/></g><g><path d="m116 224c0-2.209-1.791-4-4-4-9.04 0-30.96 0-40 0-2.209 0-4 1.791-4 4v24c0 2.209 1.791 4 4 4h40c2.209 0 4-1.791 4-4 0-6.148 0-17.852 0-24z" fill="#ff6c5c"/></g><g><path d="m68 228h48v8h-48z" fill="#e0e0e0"/></g><g><path d="m112 242c0-1.105-.895-2-2-2h-4c-1.105 0-2 .895-2 2v4c0 1.105.895 2 2 2h4c1.105 0 2-.895 2-2z" fill="#ffce4b"/></g><g><path d="m96 245.998c0-1.103-.895-1.998-1.998-1.998-4.519 0-15.481 0-20.002 0-.53 0-1.039.211-1.414.586s-.586.884-.586 1.414.211 1.039.586 1.414.884.586 1.414.586h20.002c1.103 0 1.998-.895 1.998-1.998 0-.001 0-.003 0-.004z" fill="#ffce4b"/></g></g></g></g></svg>