<svg width="44" height="67" viewBox="0 0 44 67" fill="none" xmlns="http://www.w3.org/2000/svg">
<path d="M30.7376 0.979553H12.9133V16.5608H30.7376V0.979553Z" fill="#A8D3D6"/>
<path d="M30.738 0.979553H26.282V16.5608H30.738V0.979553Z" fill="#84AFB4"/>
<path d="M24.0541 9.44672H19.5977V16.5608H24.0541V9.44672Z" fill="#FFD347"/>
<path d="M36.6811 58.7426H6.97314V65.8907H36.6811V58.7426Z" fill="#A8D3D6"/>
<path d="M36.68 58.7426H32.2239V65.8907H36.68V58.7426Z" fill="#84AFB4"/>
<path d="M42.6214 26.3795C42.6214 20.1448 37.301 15.0906 30.7383 15.0906L12.9138 15.0908C6.35106 15.0908 1.03101 20.1449 1.03101 26.3795L1.03114 54.6012C1.03114 57.7185 3.69124 60.2455 6.9726 60.2455H36.6796C39.961 60.2455 42.6211 57.7185 42.6211 54.6012L42.6214 26.3795Z" fill="#DCF3F4"/>
<path d="M30.7383 15.0905H26.2834C32.8454 15.0916 38.1644 20.1453 38.1644 26.3794L38.1643 54.601C38.1643 57.7183 35.5042 60.2454 32.2228 60.2454H36.6799C39.9613 60.2454 42.6214 57.7183 42.6214 54.601L42.6215 26.3794C42.6214 20.1448 37.3012 15.0905 30.7383 15.0905Z" fill="#B0CDCF"/>
<path d="M27.6822 42.3617C27.2156 35.2692 21.8261 32.0237 21.8261 32.0237C21.6664 35.2018 19.5258 37.2461 19.5258 37.2461L18.1798 35.9674C15.2322 40.0684 15.9316 44.0239 15.9316 44.0239V44.0237C16.3 46.805 18.7987 48.9569 21.8263 48.9569C25.1076 48.9569 27.7679 46.4298 27.7679 43.3124C27.7677 43.1323 27.691 42.496 27.6822 42.3617Z" fill="#FE8A46"/>
<path d="M27.6822 42.3617C27.2156 35.2692 21.8261 32.0237 21.8261 32.0237C21.7847 32.8455 21.6105 33.5906 21.3756 34.245C22.8515 35.9326 24.4772 38.6081 24.7242 42.3616C24.733 42.4958 24.8097 43.132 24.8097 43.3123C24.8097 45.9436 22.9145 48.1542 20.3501 48.7797C20.8222 48.8945 21.3164 48.9568 21.8262 48.9568C25.1076 48.9568 27.7678 46.4297 27.7678 43.3124C27.7677 43.1323 27.691 42.496 27.6822 42.3617Z" fill="#F26C2C"/>
<path d="M35.1947 27.3589H38.1653C38.7349 27.3589 39.1964 26.9205 39.1964 26.3794C39.1964 25.8383 38.7349 25.3998 38.1653 25.3998H35.1947C34.6251 25.3998 34.1636 25.8383 34.1636 26.3794C34.1636 26.9204 34.6252 27.3589 35.1947 27.3589Z" fill="black"/>
<path d="M43.6524 54.5984L43.6526 26.3794C43.6526 19.9443 38.41 14.6508 31.7695 14.15V0.979543C31.7695 0.438443 31.308 0 30.7384 0H12.9139C12.3443 0 11.8828 0.438443 11.8828 0.979543V14.1503C5.24224 14.6511 0 19.9444 0 26.3794V26.3796L0.000137404 54.601C0.000137404 57.9206 2.58393 60.6771 5.94118 61.1521V65.8905C5.94118 66.4316 6.4027 66.87 6.97228 66.87H36.68C37.2494 66.87 37.7111 66.4316 37.7111 65.8905V61.1521C41.0666 60.6775 43.6494 57.9236 43.6523 54.6064C43.6523 54.6046 43.6526 54.6029 43.6526 54.601C43.6526 54.6001 43.6524 54.5993 43.6524 54.5984ZM29.7073 1.95909V14.1109L25.0855 14.111V9.44632C25.0855 8.90522 24.624 8.46678 24.0544 8.46678H19.5981C19.0286 8.46678 18.567 8.90522 18.567 9.44632V14.1112L13.945 14.1113V1.95909H29.7073ZM20.6292 14.1109V10.4259H23.0233V14.1109H20.6292ZM35.6489 64.911H8.00338V61.2251H35.6489V64.911ZM36.6799 59.266H6.9727C4.26517 59.266 2.06233 57.1734 2.06233 54.601L2.0622 27.3593H30.39C30.9596 27.3593 31.4211 26.9208 31.4211 26.3797C31.4211 25.8386 30.9596 25.4002 30.39 25.4002H2.11251C2.63356 20.1735 7.27804 16.0704 12.9139 16.0704H30.7384C30.7402 16.0704 30.7418 16.0701 30.7436 16.0701C36.7251 16.0729 41.5904 20.6964 41.5904 26.3794L41.5902 53.6215H13.2624C12.6928 53.6215 12.2313 54.0601 12.2313 54.601C12.2313 55.1421 12.6928 55.5806 13.2624 55.5806H41.4804C41.0053 57.6841 39.0338 59.266 36.6799 59.266Z" fill="black"/>
<path d="M8.45795 53.622H5.48715C4.91757 53.622 4.45605 54.0605 4.45605 54.6016C4.45605 55.1427 4.91757 55.5811 5.48715 55.5811H8.45795C9.02753 55.5811 9.48905 55.1427 9.48905 54.6016C9.48905 54.0605 9.02739 53.622 8.45795 53.622Z" fill="black"/>
<path d="M14.9131 44.1783C15.3655 47.4631 18.3314 49.9364 21.8264 49.9364C25.6712 49.9364 28.7991 46.9649 28.7991 43.3124C28.7991 43.1571 28.7739 42.907 28.7357 42.543C28.7243 42.4342 28.7144 42.3426 28.7114 42.3004V42.3007C28.2177 34.7956 22.6165 31.3399 22.3783 31.1965C22.068 31.0097 21.6767 30.9939 21.3509 31.1545C21.025 31.3153 20.8137 31.6286 20.7963 31.9771C20.712 33.6535 19.9868 34.9873 19.4334 35.7731L18.909 35.2749C18.6919 35.0687 18.3879 34.9649 18.0839 34.9921C17.7783 35.0193 17.5014 35.1743 17.3283 35.415C16.0307 37.2205 15.2003 39.2951 14.927 41.4144C14.8397 42.0903 14.8099 42.7527 14.8383 43.3834C14.8552 43.7636 14.8802 44.0093 14.9131 44.1783ZM18.375 37.5383L18.7965 37.9387C18.9899 38.1225 19.2521 38.2257 19.5257 38.2257C19.5261 38.2257 19.5266 38.2257 19.5271 38.2257C19.8011 38.2253 20.0635 38.1214 20.2568 37.9369C20.3376 37.8597 21.9052 36.3368 22.5713 33.8636C24.0712 35.2328 26.3634 38.0175 26.653 42.4228V42.4231C26.6565 42.4752 26.6686 42.5948 26.6836 42.7374C26.7003 42.8968 26.7353 43.2284 26.7368 43.3122C26.7368 45.8845 24.5341 47.9772 21.8263 47.9772C19.3567 47.9772 17.2624 46.225 16.9545 43.9015C16.953 43.8907 16.9508 43.876 16.949 43.8653C16.9435 43.8326 16.4729 40.8542 18.375 37.5383Z" fill="black"/>
</svg>
