<svg width="67" height="67" viewBox="0 0 67 67" fill="none" xmlns="http://www.w3.org/2000/svg">
<path d="M56.0952 16.6522H52.177V30.3657H61.9724V22.5294C61.9724 19.2835 59.3411 16.6522 56.0952 16.6522Z" fill="#FF0037"/>
<path d="M52.1768 16.6522H31.4758V30.3657H54.1359L58.054 22.5294C58.054 19.2835 55.4227 16.6522 52.1768 16.6522Z" fill="#FF4437"/>
<path d="M58.0542 24.8243L52.177 21.5499V65.8905H56.0952C59.3411 65.8905 61.9724 63.2591 61.9724 60.0132V30.3658C61.9724 27.8069 60.3367 25.6312 58.0542 24.8243Z" fill="#FF4437"/>
<path d="M58.0541 60.0132V30.3657C58.0541 27.1198 55.4228 24.4885 52.1768 24.4885H49.1076L31.4759 16.6522H6.85674C3.6108 16.6522 0.979492 19.2835 0.979492 22.5294V60.0132C0.979492 63.2457 3.62425 65.8904 6.85674 65.8904H52.1768C55.4228 65.8904 58.0541 63.2591 58.0541 60.0132Z" fill="#FF6737"/>
<path d="M56.0951 20.5704H6.85679C5.77485 20.5704 4.89771 21.4475 4.89771 22.5295C4.89771 23.6114 5.77485 24.4885 6.85679 24.4885H13.8442L31.4759 22.5295L49.1077 24.4885H56.0951C56.7822 24.4885 57.4412 24.6075 58.0541 24.8243V22.5295C58.0541 21.4475 57.177 20.5704 56.0951 20.5704Z" fill="#353A3D"/>
<path d="M45.1896 0.979553L37.3533 12.734L45.1896 24.4885H49.1078V0.979553H45.1896Z" fill="#92D652"/>
<path d="M13.8442 0.979553V24.4885H17.7624L45.1895 10.775V0.979553H13.8442Z" fill="#AEED73"/>
<path d="M23.6397 4.89771H39.3123C39.3123 8.14364 41.9437 10.775 45.1896 10.775V24.4885H17.7625V10.775C21.0084 10.775 23.6397 8.14364 23.6397 4.89771Z" fill="#FFEEBC"/>
<path d="M31.476 16.6522C33.64 16.6522 35.3942 14.898 35.3942 12.7341C35.3942 10.5701 33.64 8.81589 31.476 8.81589C29.3121 8.81589 27.5579 10.5701 27.5579 12.7341C27.5579 14.898 29.3121 16.6522 31.476 16.6522Z" fill="#92D652"/>
<path d="M61.9724 37.3531H58.0542V53.0258H61.9724C64.1364 53.0258 65.8905 51.2716 65.8905 49.1076V41.2713C65.8905 39.1073 64.1364 37.3531 61.9724 37.3531Z" fill="#FF6737"/>
<path d="M61.9722 49.1076V41.2713C61.9722 39.1073 60.218 37.3531 58.054 37.3531H49.1076C44.7797 37.3531 41.2712 40.8616 41.2712 45.1895C41.2712 49.5174 44.7797 53.0258 49.1076 53.0258H58.054C60.218 53.0258 61.9722 51.2716 61.9722 49.1076Z" fill="#FF8937"/>
<path d="M49.1076 49.1077C51.2716 49.1077 53.0258 47.3534 53.0258 45.1895C53.0258 43.0256 51.2716 41.2713 49.1076 41.2713C46.9437 41.2713 45.1895 43.0256 45.1895 45.1895C45.1895 47.3534 46.9437 49.1077 49.1076 49.1077Z" fill="#EFF7F9"/>
<path d="M31.4758 17.6317C34.1765 17.6317 36.3735 15.4347 36.3735 12.734C36.3735 10.0334 34.1765 7.83633 31.4758 7.83633C28.7752 7.83633 26.5781 10.0334 26.5781 12.734C26.5781 15.4347 28.7752 17.6317 31.4758 17.6317ZM31.4758 9.79542C33.0963 9.79542 34.4145 11.1137 34.4145 12.734C34.4145 14.3543 33.0963 15.6727 31.4758 15.6727C29.8554 15.6727 28.5372 14.3543 28.5372 12.734C28.5372 11.1137 29.8554 9.79542 31.4758 9.79542Z" fill="black"/>
<path d="M62.9518 36.4722V22.5294C62.9518 18.7487 59.8759 15.6727 56.0951 15.6727H50.0872V0.979541C50.0872 0.438443 49.6486 0 49.1077 0H13.8442C13.3032 0 12.8646 0.438443 12.8646 0.979541V15.6727H6.85679C3.07589 15.6727 0 18.7487 0 22.5294V60.0132C0 63.794 3.07589 66.87 6.85679 66.87H56.0951C59.8759 66.87 62.9518 63.794 62.9518 60.0132V53.9068C65.1847 53.4517 66.87 51.4729 66.87 49.1077V41.2713C66.87 38.9061 65.1847 36.9273 62.9518 36.4722ZM56.0951 17.6317C58.7957 17.6317 60.9928 19.8288 60.9928 22.5294V25.5736C60.4301 24.9987 59.7679 24.5218 59.0337 24.1719V22.5294C59.0337 20.9092 57.7155 19.5908 56.0951 19.5908H50.0872V17.6317H56.0951ZM50.0872 21.5499H56.0951C56.6352 21.5499 57.0746 21.9893 57.0746 22.5294V23.58C56.7545 23.5341 56.4277 23.509 56.0951 23.509H50.0872V21.5499ZM14.8237 1.95908H48.1281V23.509H46.169V10.775C46.169 10.2339 45.7305 9.79541 45.1895 9.79541C42.4888 9.79541 40.2918 7.59837 40.2918 4.89771C40.2918 4.35661 39.8532 3.91816 39.3122 3.91816H23.6396C23.0986 3.91816 22.66 4.35661 22.66 4.89771C22.66 7.59837 20.463 9.79541 17.7623 9.79541C17.2214 9.79541 16.7828 10.2339 16.7828 10.775V20.5704C16.7828 21.1115 17.2214 21.5499 17.7623 21.5499C18.3033 21.5499 18.7419 21.1115 18.7419 20.5704V11.6847C21.7403 11.254 24.1185 8.87569 24.5494 5.87725H38.4025C38.8332 8.87569 41.2114 11.254 44.21 11.6847V23.509H14.8237V1.95908ZM6.85679 23.509C6.3166 23.509 5.87725 23.0696 5.87725 22.5294C5.87725 21.9893 6.3166 21.5499 6.85679 21.5499H12.8646V23.509H6.85679ZM56.0951 64.9109H6.85679C4.15613 64.9109 1.95908 62.7139 1.95908 60.0132V22.5294C1.95908 19.8288 4.15613 17.6317 6.85679 17.6317H12.8646V19.5908H6.85679C5.23637 19.5908 3.91816 20.9092 3.91816 22.5294C3.91816 24.1497 5.23637 25.4681 6.85679 25.4681H56.0951C58.7957 25.4681 60.9928 27.6651 60.9928 30.3658V36.3736H49.1077C44.2465 36.3736 40.2918 40.3284 40.2918 45.1895C40.2918 50.0506 44.2465 54.0054 49.1077 54.0054H60.9928V60.0132C60.9928 62.7139 58.7957 64.9109 56.0951 64.9109ZM64.9109 49.1077C64.9109 50.728 63.5927 52.0463 61.9723 52.0463H49.1077C45.3268 52.0463 42.2509 48.9703 42.2509 45.1895C42.2509 41.4087 45.3268 38.3327 49.1077 38.3327H61.9723C63.5927 38.3327 64.9109 39.651 64.9109 41.2713V49.1077Z" fill="black"/>
<path d="M49.1077 40.2918C46.407 40.2918 44.21 42.4888 44.21 45.1895C44.21 47.8901 46.407 50.0872 49.1077 50.0872C51.8083 50.0872 54.0054 47.8901 54.0054 45.1895C54.0054 42.4888 51.8083 40.2918 49.1077 40.2918ZM49.1077 48.1281C47.4872 48.1281 46.169 46.8098 46.169 45.1895C46.169 43.5692 47.4872 42.2509 49.1077 42.2509C50.7281 42.2509 52.0463 43.5692 52.0463 45.1895C52.0463 46.8098 50.7281 48.1281 49.1077 48.1281Z" fill="black"/>
</svg>
