<svg width="67" height="67" viewBox="0 0 67 67" fill="none" xmlns="http://www.w3.org/2000/svg">
<path d="M64.911 49.8914C63.829 49.8914 62.9519 50.7685 62.9519 51.8504V62.9519H51.8504C50.7685 62.9519 49.8914 63.829 49.8914 64.911C49.8914 65.9929 50.7685 66.8701 51.8504 66.8701H64.911C65.9929 66.8701 66.8701 65.9929 66.8701 64.911V51.8504C66.8701 50.7685 65.9929 49.8914 64.911 49.8914Z" fill="#FF405C"/>
<path d="M15.0196 62.9519H3.91816V51.8504C3.91816 50.7685 3.04102 49.8914 1.95908 49.8914C0.877146 49.8914 0 50.7685 0 51.8504V64.911C0 65.9929 0.877146 66.8701 1.95908 66.8701H15.0196C16.1016 66.8701 16.9787 65.9929 16.9787 64.911C16.9787 63.829 16.1016 62.9519 15.0196 62.9519Z" fill="#FF7038"/>
<path d="M64.911 0H51.8504C50.7685 0 49.8914 0.877146 49.8914 1.95908C49.8914 3.04102 50.7685 3.91816 51.8504 3.91816H62.9519V15.0196C62.9519 16.1016 63.829 16.9787 64.911 16.9787C65.9929 16.9787 66.8701 16.1016 66.8701 15.0196V1.95908C66.8701 0.877146 65.9929 0 64.911 0Z" fill="#FF405C"/>
<path d="M1.95908 16.9787C3.04102 16.9787 3.91816 16.1016 3.91816 15.0196V3.91816H15.0196C16.1016 3.91816 16.9787 3.04102 16.9787 1.95908C16.9787 0.877146 16.1016 0 15.0196 0H1.95908C0.877146 0 0 0.877146 0 1.95908V15.0196C0 16.1016 0.877146 16.9787 1.95908 16.9787Z" fill="#FF7038"/>
<path d="M41.2713 27.5577H56.944C58.0259 27.5577 58.9031 26.6806 58.9031 25.5987V9.926C58.9031 8.84407 58.0259 7.96692 56.944 7.96692H41.2713C40.1894 7.96692 39.3123 8.84407 39.3123 9.926V25.5987C39.3123 26.6806 40.1894 27.5577 41.2713 27.5577ZM43.2304 11.8851H54.9849V23.6396H43.2304V11.8851Z" fill="#002659"/>
<path d="M49.1078 19.7214C50.1897 19.7214 51.0668 18.8443 51.0668 17.7623C51.0668 16.6803 50.1897 15.8032 49.1078 15.8032C48.0258 15.8032 47.1487 16.6803 47.1487 17.7623C47.1487 18.8443 48.0258 19.7214 49.1078 19.7214Z" fill="#002659"/>
<path d="M25.5988 39.3123H9.92612C8.84419 39.3123 7.96704 40.1894 7.96704 41.2713V56.944C7.96704 58.0259 8.84419 58.9031 9.92612 58.9031H25.5988C26.6807 58.9031 27.5579 58.0259 27.5579 56.944V41.2713C27.5579 40.1894 26.6807 39.3123 25.5988 39.3123ZM23.6397 54.9849H11.8852V43.2304H23.6397V54.9849Z" fill="#00429B"/>
<path d="M58.9032 56.944V49.1076C58.9032 48.0257 58.026 47.1486 56.9441 47.1486C55.8622 47.1486 54.985 48.0257 54.985 49.1076V54.9849H49.1078C48.0258 54.9849 47.1487 55.862 47.1487 56.944C47.1487 58.0259 48.0258 58.9031 49.1078 58.9031H56.9441C58.026 58.9031 58.9032 58.0259 58.9032 56.944Z" fill="#002659"/>
<path d="M41.2713 35.3941H54.9849V41.2713C54.9849 42.3532 55.8621 43.2304 56.944 43.2304C58.0259 43.2304 58.9031 42.3532 58.9031 41.2713V33.435C58.9031 32.353 58.0259 31.4759 56.944 31.4759H41.2713C40.1894 31.4759 39.3123 32.353 39.3123 33.435C39.3123 34.5169 40.1894 35.3941 41.2713 35.3941Z" fill="#002659"/>
<path d="M41.2712 54.9849H35.394V49.1076C35.394 48.0257 34.5168 47.1486 33.4349 47.1486C32.353 47.1486 31.4758 48.0257 31.4758 49.1076V56.944C31.4758 58.0259 32.353 58.9031 33.4349 58.9031H41.2712C42.3532 58.9031 43.2303 58.0259 43.2303 56.944C43.2303 55.862 42.3532 54.9849 41.2712 54.9849Z" fill="#00429B"/>
<path d="M17.7623 51.0667C18.8443 51.0667 19.7214 50.1896 19.7214 49.1076C19.7214 48.0257 18.8443 47.1486 17.7623 47.1486C16.6803 47.1486 15.8032 48.0257 15.8032 49.1076C15.8032 50.1896 16.6803 51.0667 17.7623 51.0667Z" fill="#00429B"/>
<path d="M25.5988 7.96692H9.92612C8.84419 7.96692 7.96704 8.84407 7.96704 9.926V25.5987C7.96704 26.6806 8.84419 27.5577 9.92612 27.5577H25.5988C26.6807 27.5577 27.5579 26.6806 27.5579 25.5987V9.926C27.5579 8.84407 26.6807 7.96692 25.5988 7.96692ZM23.6397 23.6396H11.8852V11.8851H23.6397V23.6396Z" fill="#00429B"/>
<path d="M17.7623 19.7214C18.8443 19.7214 19.7214 18.8443 19.7214 17.7623C19.7214 16.6803 18.8443 15.8032 17.7623 15.8032C16.6803 15.8032 15.8032 16.6803 15.8032 17.7623C15.8032 18.8443 16.6803 19.7214 17.7623 19.7214Z" fill="#00429B"/>
<path d="M49.1077 47.1486H41.2713C40.1894 47.1486 39.3123 48.0257 39.3123 49.1076C39.3123 50.1896 40.1894 51.0667 41.2713 51.0667H49.1077C50.1896 51.0667 51.0667 50.1896 51.0667 49.1076C51.0667 48.0257 50.1896 47.1486 49.1077 47.1486Z" fill="#002659"/>
<path d="M33.4352 43.2304H49.1078C50.1897 43.2304 51.0669 42.3533 51.0669 41.2714C51.0669 40.1894 50.1897 39.3123 49.1078 39.3123H35.3942V33.435C35.3942 32.3531 34.5171 31.476 33.4352 31.476C32.3532 31.476 31.4761 32.3531 31.4761 33.435V41.2714C31.4761 42.3533 32.3532 43.2304 33.4352 43.2304Z" fill="#00429B"/>
<path d="M9.92612 35.3941H15.1503C16.2323 35.3941 17.1094 34.517 17.1094 33.435C17.1094 32.3531 16.2323 31.476 15.1503 31.476H9.92612C8.84419 31.476 7.96704 32.3531 7.96704 33.435C7.96704 34.517 8.84419 35.3941 9.92612 35.3941Z" fill="#00429B"/>
<path d="M25.5988 31.476H22.9867C21.9047 31.476 21.0276 32.3531 21.0276 33.435C21.0276 34.517 21.9047 35.3941 22.9867 35.3941H25.5988C26.6807 35.3941 27.5579 34.517 27.5579 33.435C27.5579 32.3531 26.6807 31.476 25.5988 31.476Z" fill="#00429B"/>
<path d="M33.4352 27.5578C34.5171 27.5578 35.3942 26.6806 35.3942 25.5987V17.7624C35.3942 16.6804 34.5171 15.8033 33.4352 15.8033C32.3532 15.8033 31.4761 16.6804 31.4761 17.7624V25.5987C31.4761 26.6806 32.3532 27.5578 33.4352 27.5578Z" fill="#00429B"/>
<path d="M33.4352 11.8851C34.5171 11.8851 35.3942 11.008 35.3942 9.926C35.3942 8.84403 34.5171 7.96692 33.4352 7.96692C32.3532 7.96692 31.4761 8.84403 31.4761 9.926C31.4761 11.008 32.3532 11.8851 33.4352 11.8851Z" fill="#00429B"/>
<path d="M43.2305 56.944C43.2305 55.862 42.3533 54.9849 41.2714 54.9849H35.3941V49.1076C35.3941 48.0257 34.517 47.1486 33.4351 47.1486V58.9031H41.2714C42.3533 58.9031 43.2305 58.0259 43.2305 56.944Z" fill="#002659"/>
<path d="M51.0668 41.2713C51.0668 40.1894 50.1897 39.3122 49.1077 39.3122H35.3941V33.435C35.3941 32.353 34.517 31.4759 33.4351 31.4759V43.2304H49.1077C50.1897 43.2304 51.0668 42.3532 51.0668 41.2713Z" fill="#002659"/>
<path d="M35.3941 25.5986V17.7623C35.3941 16.6804 34.517 15.8032 33.4351 15.8032V27.5577C34.517 27.5577 35.3941 26.6806 35.3941 25.5986Z" fill="#002659"/>
<path d="M35.3941 9.926C35.3941 8.84407 34.517 7.96692 33.4351 7.96692V11.8851C34.517 11.8851 35.3941 11.0079 35.3941 9.926Z" fill="#002659"/>
</svg>
