<svg width="74" height="67" viewBox="0 0 74 67" fill="none" xmlns="http://www.w3.org/2000/svg">
<path d="M50.3287 18.179C50.2715 18.179 50.2132 18.1745 50.1548 18.1653C48.6384 17.9269 47.4692 17.0844 46.3383 16.2699C45.6606 15.7816 45.0203 15.3203 44.3453 15.0197C42.1564 14.045 39.8081 14.8498 37.3649 17.4113C36.9409 17.8557 36.2373 17.8722 35.7929 17.4486C35.3486 17.0249 35.332 16.3211 35.7556 15.8767C39.6933 11.7485 43.0918 12.0275 45.2498 12.9885C46.1341 13.3824 46.8986 13.9332 47.6381 14.4659C48.5996 15.1586 49.5078 15.8128 50.5001 15.969C51.1066 16.0644 51.5212 16.6335 51.4258 17.24C51.3394 17.7879 50.8666 18.179 50.3287 18.179Z" fill="#655E67"/>
<path d="M48.98 32.1337C48.6769 32.1337 48.375 32.0105 48.1555 31.768C46.6683 30.1249 46.095 28.0476 45.5407 26.0386C45.397 25.5177 45.2612 25.0256 45.1096 24.5392C44.4618 22.4608 43.0193 20.6767 41.345 19.883C40.0811 19.2841 38.7613 19.2543 37.4219 19.7944C36.8517 20.024 36.2045 19.7485 35.9751 19.1792C35.7453 18.6097 36.0209 17.9619 36.5902 17.7323C38.5021 16.9611 40.4752 17.0101 42.2974 17.8737C44.5485 18.9407 46.3933 21.1851 47.2325 23.8774C47.3949 24.3988 47.542 24.9316 47.6842 25.447C48.1918 27.2867 48.6713 29.0243 49.8041 30.2757C50.2161 30.7309 50.1813 31.4339 49.726 31.846C49.5132 32.0387 49.2461 32.1337 48.98 32.1337Z" fill="#655E67"/>
<path d="M37.1904 1.18783C35.809 -0.0277712 34.2106 -0.442611 32.5532 0.573697C31.5386 1.19588 30.344 1.28798 29.3223 0.68363C28.5773 0.243033 27.7613 0 26.9057 0C26.0502 0 25.2341 0.243177 24.4892 0.68363C23.4674 1.28798 22.2728 1.19588 21.2583 0.573697C19.6011 -0.442467 18.0024 -0.0276273 16.6211 1.18783C14.4551 3.09411 13.6437 6.24649 16.2667 10.7094C18.1414 13.8992 20.6591 15.8668 22.734 16.0344C23.8509 17.4312 29.9607 17.4312 31.0776 16.0344C33.1525 15.8668 35.6702 13.8992 37.545 10.7094C40.1678 6.24663 39.3566 3.09411 37.1904 1.18783Z" fill="#C77E67"/>
<path d="M35.1545 20.5043H18.6567C18.6567 20.5043 0 42.8209 0 51.8729C0 61.9994 8.99152 66.8697 13.7978 66.8697H40.0136C44.8197 66.8697 53.8114 61.9994 53.8114 51.8729C53.8113 42.8209 35.1545 20.5043 35.1545 20.5043Z" fill="#C77E67"/>
<path d="M37.1904 1.18783C35.8092 -0.0277715 34.2106 -0.442612 32.5532 0.573696C32.4471 0.638735 32.3386 0.696724 32.2289 0.749964C32.3961 0.881337 32.5604 1.02696 32.7212 1.18783C34.6269 3.09411 35.3407 6.24649 33.033 10.7094C31.3835 13.8992 29.1683 15.8668 27.3428 16.0344C27.0114 16.5055 26.1794 16.8171 25.1855 16.9705C27.4049 17.2716 30.3372 16.9601 31.0773 16.0344C33.1523 15.8668 35.6699 13.8992 37.5447 10.7094C40.1679 6.24663 39.3566 3.09411 37.1904 1.18783Z" fill="#AC583E"/>
<path d="M35.1547 20.5043H30.9302C30.9302 20.5043 47.3449 42.8209 47.3449 51.8729C47.3449 61.9994 39.4339 66.8697 35.2052 66.8697H40.0136C44.8199 66.8697 53.8114 61.9994 53.8114 51.8729C53.8114 42.8211 35.1547 20.5043 35.1547 20.5043Z" fill="#AC583E"/>
<path d="M37.9134 23.9335C36.2526 21.818 35.1547 20.5043 35.1547 20.5043H18.6569C18.6569 20.5043 17.559 21.8179 15.8982 23.9335H37.9134Z" fill="#AC583E"/>
<path d="M26.9059 18.5419C25.964 18.5419 25.1396 18.0694 24.7102 17.3234C24.0809 16.8825 23.1654 15.655 22.3844 11.9955C22.1402 10.8522 21.9752 9.75457 21.8937 8.73351C21.8449 8.12139 22.3016 7.58568 22.9138 7.5369C23.5259 7.48625 24.0614 7.94484 24.1104 8.55681C24.184 9.4816 24.335 10.4822 24.5592 11.5313C25.1157 14.1401 25.731 15.2213 25.9503 15.458C26.2761 15.5803 26.5289 15.8498 26.6273 16.1897C26.6643 16.317 26.8961 16.3185 26.906 16.3185C26.9158 16.3185 27.1478 16.317 27.1848 16.1897C27.2832 15.8498 27.5363 15.5803 27.8619 15.458C28.0812 15.2214 28.6963 14.1404 29.2531 11.5315C29.4761 10.4865 29.6278 9.48506 29.7039 8.55465C29.7538 7.94268 30.2934 7.48712 30.9023 7.53719C31.5145 7.58727 31.97 8.12384 31.9198 8.73581C31.8362 9.76104 31.6706 10.8576 31.4276 11.9955C30.6465 15.655 29.7309 16.8825 29.1014 17.3234C28.6722 18.0695 27.8478 18.5419 26.9059 18.5419Z" fill="#7B3F2C"/>
<path d="M32.5254 37.642H30.6035C30.4548 36.8057 30.1163 36.0197 29.6072 35.3368H32.5254C33.1395 35.3368 33.6371 34.8391 33.6371 34.2251C33.6371 33.6111 33.1394 33.1133 32.5254 33.1133H21.2855C20.6714 33.1133 20.1738 33.611 20.1738 34.225C20.1738 34.8389 20.6715 35.3368 21.2855 35.3368H25.1885C26.0639 35.3375 26.8868 35.6787 27.506 36.2977C27.8883 36.6799 28.1637 37.1401 28.3194 37.6421H21.2855C20.6714 37.6421 20.1738 38.1398 20.1738 38.7538C20.1738 39.3678 20.6715 39.8655 21.2855 39.8655H28.2755C27.8087 41.2062 26.5396 42.1707 25.0503 42.1707H22.7422C22.0395 42.1707 21.4133 42.5638 21.1077 43.1965C20.8022 43.8292 20.8839 44.564 21.3209 45.1143L28.1083 53.6586C28.3279 53.9348 28.6522 54.0789 28.9796 54.0789C29.2219 54.0789 29.4659 54 29.6704 53.8376C30.1511 53.4557 30.2313 52.7562 29.8494 52.2755L23.5885 44.3939H25.0503C27.7738 44.3939 30.0524 42.4461 30.5771 39.8654H32.5254C33.1395 39.8654 33.6371 39.3677 33.6371 38.7537C33.6372 38.1397 33.1395 37.642 32.5254 37.642Z" fill="#F0E9E6"/>
<path d="M14.6143 17.5955C14.6143 19.2021 15.9166 20.5043 17.523 20.5043H36.288C37.8945 20.5043 39.1967 19.2019 39.1967 17.5955C39.1967 15.989 37.8944 14.6868 36.288 14.6868H17.523C15.9165 14.6868 14.6143 15.989 14.6143 17.5955Z" fill="#655E67"/>
<path d="M36.2882 14.6868H32.1919C33.7983 14.6868 35.1007 15.9891 35.1007 17.5955C35.1007 19.2019 33.7983 20.5043 32.1919 20.5043H36.2882C37.8948 20.5043 39.197 19.2019 39.197 17.5955C39.197 15.9891 37.8948 14.6868 36.2882 14.6868Z" fill="#544F56"/>
<path d="M58.0584 59.6818H38.6465C36.6616 59.6818 35.0525 61.2909 35.0525 63.2757C35.0525 65.2606 36.6616 66.8697 38.6465 66.8697H58.0584C60.0432 66.8697 61.6523 65.2606 61.6523 63.2757C61.6523 61.2908 60.0432 59.6818 58.0584 59.6818Z" fill="#F7E365"/>
<path d="M58.0583 59.6818H53.9358C55.9206 59.6818 57.5298 61.2909 57.5298 63.2757C57.5298 65.2607 55.9206 66.8697 53.9358 66.8697H58.0583C60.0431 66.8697 61.6523 65.2606 61.6523 63.2757C61.6523 61.2908 60.0431 59.6818 58.0583 59.6818Z" fill="#ECC52E"/>
<path d="M58.0584 52.4936H38.6465C36.6616 52.4936 35.0525 54.1027 35.0525 56.0876C35.0525 58.0724 36.6616 59.6816 38.6465 59.6816H58.0584C60.0432 59.6816 61.6523 58.0724 61.6523 56.0876C61.6523 54.1027 60.0432 52.4936 58.0584 52.4936Z" fill="#F7E365"/>
<path d="M58.0584 56.9301H38.6465C37.149 56.9301 35.8659 56.014 35.3257 54.7118C35.1499 55.1356 35.0525 55.6002 35.0525 56.0876C35.0525 58.0724 36.6616 59.6816 38.6465 59.6816H58.0584C60.0432 59.6816 61.6523 58.0724 61.6523 56.0876C61.6523 55.6002 61.5548 55.1356 61.3791 54.7118C60.8389 56.014 59.5558 56.9301 58.0584 56.9301Z" fill="#ECC52E"/>
<path d="M58.0583 52.4936H53.9358C55.9206 52.4936 57.5298 54.1027 57.5298 56.0875C57.5298 58.0724 55.9206 59.6815 53.9358 59.6815H58.0583C60.0431 59.6815 61.6523 58.0724 61.6523 56.0875C61.6523 54.1027 60.0431 52.4936 58.0583 52.4936Z" fill="#ECC52E"/>
<path d="M73.1907 61.4781L63.4847 44.6671C62.4923 42.9482 60.2942 42.3591 58.5751 43.3516C56.8562 44.3441 56.2673 46.5421 57.2597 48.2612L66.9656 65.0724C67.958 66.7913 70.1561 67.3804 71.8751 66.3878C73.5941 65.3953 74.1831 63.1972 73.1907 61.4781Z" fill="#F7E365"/>
<path d="M73.1908 61.4781L71.1296 57.908C72.122 59.6269 71.5331 61.825 69.8141 62.8176C68.0952 63.81 65.8971 63.221 64.9045 61.5021L66.9658 65.0722C67.9582 66.7911 70.1563 67.3802 71.8752 66.3876C73.5943 65.3952 74.1833 63.197 73.1908 61.4781Z" fill="#ECC52E"/>
</svg>
