<svg width="67" height="67" viewBox="0 0 67 67" fill="none" xmlns="http://www.w3.org/2000/svg">
<g clip-path="url(#clip0_129_454)">
<path d="M33.3614 66.869H33.5094C37.2719 66.8608 40.8809 66.2017 44.2328 65.0007C45.7322 63.6579 46.6771 61.708 46.6766 59.5362L46.674 7.33176C46.674 3.28248 43.391 0 39.3417 0L14.1145 0.00102036C10.0647 0.00153054 6.7822 3.28401 6.78271 7.3338L6.78476 52.585C12.5064 61.1764 22.2707 66.844 33.3614 66.869Z" fill="#6244BD"/>
<path d="M14.1145 0.00102036C10.0647 0.00153054 6.7822 3.28401 6.78271 7.3338L6.78476 52.5845C8.89587 55.7548 11.5575 58.5255 14.6328 60.7632C14.5655 60.3647 14.5287 59.9556 14.5287 59.5382L14.5267 7.3338C14.5262 3.28401 17.8087 0.00153054 21.858 0.00102036V0.000510178C21.8534 0.000510178 21.8631 0 21.858 0L14.1145 0.00102036Z" fill="#4E2AA5"/>
<path d="M18.2383 63.0375L39.3449 63.0365C41.278 63.036 42.8447 61.4693 42.8447 59.5367L42.8422 7.33177C42.8417 5.39921 41.2749 3.83246 39.3423 3.83246H34.664C34.1844 3.83246 33.7493 4.10795 33.538 4.53905C33.0768 5.48135 32.109 6.1303 30.9887 6.1303L22.4682 6.13081C21.3484 6.13081 20.3806 5.48186 19.9189 4.53956C19.7082 4.10846 19.2725 3.83348 18.7929 3.83348H14.1146C12.1815 3.83348 10.6147 5.40074 10.6147 7.3333L10.6173 57.3016C12.8488 59.5719 15.4155 61.5111 18.2383 63.0375Z" fill="#E6FCFF"/>
<path d="M14.1146 3.83347C12.1815 3.83347 10.6147 5.40073 10.6147 7.33328L10.6173 57.3016C11.8565 58.5623 13.1988 59.7199 14.6314 60.7621C14.5645 60.3642 14.5288 59.9556 14.5288 59.5382L14.5263 7.33379C14.5263 6.066 14.8482 4.87372 15.414 3.83347H14.1146Z" fill="#CCEBFF"/>
<path d="M37.7639 23.0309H15.6931C15.0488 23.0309 14.5264 23.5534 14.5264 24.1977V38.3077C14.5264 38.9521 15.0488 39.4745 15.6931 39.4745H37.7639C38.4083 39.4745 38.9307 38.9521 38.9307 38.3077V24.1972C38.9307 23.5534 38.4083 23.0309 37.7639 23.0309Z" fill="#5F83FA"/>
<path d="M21.2332 38.3077V24.1972C21.2332 23.5534 21.7551 23.0309 22.3999 23.0309H15.6931C15.0488 23.0309 14.5264 23.5534 14.5264 24.1972V38.3077C14.5264 38.9521 15.0488 39.474 15.6931 39.474H22.3999C21.7551 39.474 21.2332 38.9521 21.2332 38.3077Z" fill="#4070EA"/>
<path d="M29.2536 56.7083H24.2033C23.1452 56.7083 22.2871 55.8502 22.2871 54.7921C22.2871 53.7334 23.1452 52.8758 24.2033 52.8758H29.2536C30.3122 52.8758 31.1698 53.7334 31.1698 54.7921C31.1698 55.8502 30.3122 56.7083 29.2536 56.7083Z" fill="#A5C013"/>
<path d="M26.3685 54.7921C26.3685 53.7334 27.2266 52.8758 28.2848 52.8758H24.2033C23.1452 52.8758 22.2871 53.7334 22.2871 54.7921C22.2871 55.8502 23.1452 56.7083 24.2033 56.7083H28.2848C27.2261 56.7083 26.3685 55.8502 26.3685 54.7921Z" fill="#8DAE16"/>
<path d="M14.5264 26.6685H38.9307V31.2525H14.5264V26.6685Z" fill="#6244BD"/>
<path d="M14.5264 26.6685H21.2332V31.2525H14.5264V26.6685Z" fill="#4E2AA5"/>
<path d="M37.3267 14.2676H20.3291C19.271 14.2676 18.4128 13.41 18.4128 12.3514C18.4128 11.2933 19.2705 10.4352 20.3291 10.4352H37.3267C38.3853 10.4352 39.2429 11.2933 39.2429 12.3514C39.2429 13.41 38.3848 14.2676 37.3267 14.2676Z" fill="#CCEBFF"/>
<path d="M26.5762 12.3514C26.5762 11.2933 27.4338 10.4352 28.4924 10.4352H20.3291C19.271 10.4352 18.4128 11.2933 18.4128 12.3514C18.4128 13.41 19.2705 14.2676 20.3291 14.2676H28.4924C27.4338 14.2676 26.5762 13.41 26.5762 12.3514Z" fill="#B8DFF4"/>
<path d="M20.3291 14.2676H16.1303C15.0722 14.2676 14.2141 13.41 14.2141 12.3514C14.2141 11.2933 15.0722 10.4352 16.1303 10.4352H20.3291C21.3872 10.4352 22.2453 11.2933 22.2453 12.3514C22.2453 13.41 21.3872 14.2676 20.3291 14.2676Z" fill="#FE4675"/>
<path d="M18.3843 12.3514C18.3843 11.2933 19.2419 10.4352 20.3005 10.4352H16.1303C15.0722 10.4352 14.2141 11.2933 14.2141 12.3514C14.2141 13.41 15.0722 14.2676 16.1303 14.2676H20.3005C19.2419 14.2676 18.3843 13.41 18.3843 12.3514Z" fill="#EC3969"/>
<path d="M36.991 23.031V19.6602C36.991 19.1184 36.5518 18.6791 36.01 18.6791H17.4472C16.9053 18.6791 16.4656 19.1184 16.4656 19.6602V23.031H36.991Z" fill="#4070EA"/>
<path d="M24.154 18.6791H17.4472C16.9053 18.6791 16.4656 19.1184 16.4656 19.6602V23.031H23.1724V19.6602C23.1724 19.1184 23.6116 18.6791 24.154 18.6791Z" fill="#205DD9"/>
<path d="M21.9071 45.7313H20.3928C19.8051 45.7313 19.3286 45.2548 19.3286 44.6666C19.3286 44.0788 19.8051 43.6023 20.3928 43.6023H21.9071C22.4948 43.6023 22.9718 44.0788 22.9718 44.6666C22.9718 45.2548 22.4948 45.7313 21.9071 45.7313Z" fill="#CCEBFF"/>
<path d="M27.4854 45.7313H25.9717C25.3835 45.7313 24.907 45.2548 24.907 44.6666C24.907 44.0788 25.3835 43.6023 25.9717 43.6023H27.4854C28.0737 43.6023 28.5502 44.0788 28.5502 44.6666C28.5502 45.2548 28.0737 45.7313 27.4854 45.7313Z" fill="#CCEBFF"/>
<path d="M33.0641 45.7313H31.5498C30.9616 45.7313 30.4851 45.2548 30.4851 44.6666C30.4851 44.0788 30.9616 43.6023 31.5498 43.6023H33.0641C33.6518 43.6023 34.1283 44.0788 34.1283 44.6666C34.1283 45.2548 33.6518 45.7313 33.0641 45.7313Z" fill="#CCEBFF"/>
<path d="M58.2874 46.7486C54.584 40.3341 46.3819 38.1363 39.9674 41.8397C33.5535 45.5436 31.3556 53.7452 35.059 60.1596C38.7624 66.5741 46.9645 68.7714 53.379 65.0681C59.7929 61.3647 61.9908 53.1626 58.2874 46.7486Z" fill="#A5C013"/>
<path d="M48.2959 60.728C46.924 58.3516 47.173 55.4859 48.6979 53.4064L48.0321 52.2524C45.469 52.5335 42.639 50.93 41.2672 48.5536C39.8244 46.0548 40.1733 43.0131 41.9151 40.9157C41.2529 41.1678 40.6019 41.4749 39.9683 41.8407C33.5538 45.5441 31.3565 53.7462 35.0598 60.1607C38.7632 66.5751 46.9653 68.773 53.3798 65.0696C53.9247 64.7553 54.4379 64.4074 54.921 64.0319C52.3314 64.3492 49.6825 63.1299 48.2959 60.728Z" fill="#8DAE16"/>
<path d="M45.2813 59.6296C44.7732 59.6296 44.2855 59.4275 43.9263 59.0684L39.8505 54.992C39.1026 54.2441 39.1026 53.0304 39.8505 52.2825C40.5989 51.5341 41.8126 51.5341 42.5606 52.2825L45.2813 55.0033L51.1841 49.1005C51.9325 48.3521 53.1457 48.3521 53.8941 49.1005C54.6426 49.8489 54.6426 51.0621 53.8941 51.8106L46.6364 59.0684C46.2772 59.4275 45.7895 59.6296 45.2813 59.6296Z" fill="#E6FCFF"/>
</g>
<defs>
<clipPath id="clip0_129_454">
<rect width="66.87" height="66.87" fill="white"/>
</clipPath>
</defs>
</svg>
