<svg width="57" height="67" viewBox="0 0 57 67" fill="none" xmlns="http://www.w3.org/2000/svg">
<path d="M21.7684 9.78078C21.7684 7.26885 23.812 5.22539 26.3238 5.22539H32.9152V1.33988C32.9152 0.599871 32.3155 0 31.5755 0H4.8682C4.12819 0 3.52832 0.599871 3.52832 1.33988V41.1327H21.7684V9.78078Z" fill="#0ED2B3"/>
<path d="M31.5753 0H26.062C26.802 0 27.4019 0.599871 27.4019 1.33975V5.22526H32.9151V1.33975C32.915 0.599871 32.3153 0 31.5753 0Z" fill="#0AB69F"/>
<path d="M21.7683 30.9555H13.8897C13.3487 30.9555 12.9102 31.394 12.9102 31.9351C12.9102 32.4762 13.3487 32.9146 13.8897 32.9146H21.7683V30.9555Z" fill="white"/>
<path d="M21.7684 9.78081C21.7684 9.05974 21.9375 8.37772 22.237 7.77106H8.97701C8.607 7.77106 8.30713 8.07093 8.30713 8.44093V26.9306C8.30713 27.3006 8.607 27.6005 8.97701 27.6005H21.7684V9.78081Z" fill="white"/>
<path d="M10.674 32.9146H8.30693C7.76597 32.9146 7.32739 32.4762 7.32739 31.9351C7.32739 31.394 7.76597 30.9555 8.30693 30.9555H10.674C11.215 30.9555 11.6536 31.394 11.6536 31.9351C11.6536 32.4762 11.215 32.9146 10.674 32.9146Z" fill="white"/>
<path d="M14.5925 14.5791H11.0661C10.7776 14.5791 10.5437 14.3452 10.5437 14.0566V10.5303C10.5437 10.2418 10.7776 10.0079 11.0661 10.0079H14.5925C14.881 10.0079 15.1149 10.2418 15.1149 10.5303V14.0566C15.1149 14.3452 14.8811 14.5791 14.5925 14.5791Z" fill="#766E6E"/>
<path d="M14.5925 25.3636H11.0661C10.7776 25.3636 10.5437 25.1297 10.5437 24.8412V21.3148C10.5437 21.0263 10.7776 20.7924 11.0661 20.7924H14.5925C14.881 20.7924 15.1149 21.0263 15.1149 21.3148V24.8412C15.1149 25.1297 14.8811 25.3636 14.5925 25.3636Z" fill="#766E6E"/>
<path d="M18.2218 18.6652H14.4998C13.9588 18.6652 13.5203 18.2268 13.5203 17.6857C13.5203 17.1446 13.9588 16.7061 14.4998 16.7061H17.2423V10.3802C17.2423 9.83914 17.6808 9.4007 18.2218 9.4007C18.7628 9.4007 19.2013 9.83914 19.2013 10.3802V17.6858C19.2013 18.2268 18.7628 18.6652 18.2218 18.6652Z" fill="#766E6E"/>
<path d="M11.8727 18.6652H10.9161C10.3751 18.6652 9.93652 18.2268 9.93652 17.6857C9.93652 17.1446 10.3751 16.7061 10.9161 16.7061H11.8727C12.4137 16.7061 12.8523 17.1446 12.8523 17.6857C12.8523 18.2268 12.4137 18.6652 11.8727 18.6652Z" fill="#766E6E"/>
<path d="M21.7683 20.1953C21.7244 20.1893 21.6799 20.1851 21.6343 20.1851H18.2217C17.6808 20.1851 17.2422 20.6235 17.2422 21.1646V24.9914C17.2422 25.5325 17.6808 25.9709 18.2217 25.9709C18.7627 25.9709 19.2013 25.5325 19.2013 24.9914V22.1442H21.6343C21.6799 22.1442 21.7244 22.14 21.7683 22.134V20.1953Z" fill="#766E6E"/>
<path d="M21.7683 34.7359H8.30693C7.76597 34.7359 7.32739 35.1744 7.32739 35.7155C7.32739 36.2566 7.76597 36.695 8.30693 36.695H21.7683V34.7359Z" fill="white"/>
<path d="M21.7683 40.9987H2.00976C0.899741 40.9987 0 41.8984 0 43.0084V45.8221C0 46.1921 0.29987 46.492 0.669875 46.492H21.7683V40.9987Z" fill="#FFD15B"/>
<path d="M55.4243 58.2978V9.78076C55.4243 7.19085 53.3248 5.09137 50.7349 5.09137H26.3237C23.7338 5.09137 21.6343 7.19085 21.6343 9.78076V58.2978H55.4243Z" fill="#DFF6FD"/>
<path d="M50.7349 5.09137H45.2786C47.8685 5.09137 49.968 7.19085 49.968 9.78076V58.2978H55.4243V9.78076C55.4243 7.19085 53.3248 5.09137 50.7349 5.09137Z" fill="#C8EFFE"/>
<path d="M21.6343 61.2011C21.6343 63.791 23.7338 65.8905 26.3237 65.8905H50.7349C53.3248 65.8905 55.4243 63.791 55.4243 61.2011V58.1638H21.6343V61.2011Z" fill="#8379C1"/>
<path d="M49.968 58.1638V61.2011C49.968 63.791 47.8685 65.8905 45.2786 65.8905H50.7349C53.3248 65.8905 55.4243 63.791 55.4243 61.2011V58.1638H49.968Z" fill="#6E61B6"/>
<path d="M46.5459 52.3902H30.5127C29.4027 52.3902 28.5029 51.4904 28.5029 50.3804V47.0368C28.5029 45.9267 29.4027 45.027 30.5127 45.027H46.5459C47.656 45.027 48.5557 45.9267 48.5557 47.0368V50.3804C48.5557 51.4904 47.656 52.3902 46.5459 52.3902Z" fill="#0ED2B3"/>
<path d="M46.546 45.0272H40.9824C42.0923 45.0272 42.9922 45.9269 42.9922 47.0369V50.3806C42.9922 51.4906 42.0924 52.3903 40.9824 52.3903H46.546C47.656 52.3903 48.5557 51.4906 48.5557 50.3806V47.0369C48.5557 45.9269 47.656 45.0272 46.546 45.0272Z" fill="#0AB69F"/>
<path d="M44.2906 49.6882H32.7681C32.2271 49.6882 31.7886 49.2497 31.7886 48.7086C31.7886 48.1675 32.2271 47.7291 32.7681 47.7291H44.2906C44.8316 47.7291 45.2702 48.1675 45.2702 48.7086C45.2702 49.2497 44.8316 49.6882 44.2906 49.6882Z" fill="white"/>
<path d="M29.0295 9.86033H26.2642C25.7232 9.86033 25.2847 9.42188 25.2847 8.88079C25.2847 8.33969 25.7232 7.90125 26.2642 7.90125H29.0295C29.5705 7.90125 30.0091 8.33969 30.0091 8.88079C30.0091 9.42188 29.5705 9.86033 29.0295 9.86033Z" fill="#8379C1"/>
<path d="M42.1469 62.7834H34.9119C34.3709 62.7834 33.9324 62.345 33.9324 61.8039C33.9324 61.2628 34.3709 60.8243 34.9119 60.8243H42.1469C42.6879 60.8243 43.1265 61.2628 43.1265 61.8039C43.1265 62.345 42.6879 62.7834 42.1469 62.7834Z" fill="#54469C"/>
<path d="M48.804 39.641H28.2546C27.8885 39.641 27.5918 39.3442 27.5918 38.9782V18.4287C27.5918 18.0626 27.8885 17.7659 28.2546 17.7659H48.804C49.17 17.7659 49.4668 18.0626 49.4668 18.4287V38.978C49.4669 39.3441 49.1702 39.641 48.804 39.641Z" fill="white"/>
<path d="M48.8039 17.7659H44.8145C45.1805 17.7659 45.4773 18.0626 45.4773 18.4287V38.978C45.4773 39.3441 45.1805 39.6409 44.8145 39.6409H48.8039C49.17 39.6409 49.4667 39.3441 49.4667 38.978V18.4287C49.4669 18.0626 49.1701 17.7659 48.8039 17.7659Z" fill="#F9F3F1"/>
<path d="M48.8041 40.6205H28.2547C27.3491 40.6205 26.6123 39.8836 26.6123 38.9782V18.4288C26.6123 17.5232 27.3491 16.7865 28.2547 16.7865H48.804C49.7096 16.7865 50.4464 17.5233 50.4464 18.4288V38.9782C50.4465 39.8836 49.7097 40.6205 48.8041 40.6205ZM28.5714 38.6614H48.4874V18.7454H28.5714V38.6614Z" fill="#99E6FC"/>
<path d="M34.8148 25.5115H30.6355C30.347 25.5115 30.113 25.2776 30.113 24.9891V20.8097C30.113 20.5212 30.347 20.2873 30.6355 20.2873H34.8148C35.1033 20.2873 35.3373 20.5212 35.3373 20.8097V24.9891C35.3373 25.2776 35.1033 25.5115 34.8148 25.5115Z" fill="#766E6E"/>
<path d="M46.4232 25.5115H42.2439C41.9553 25.5115 41.7214 25.2776 41.7214 24.9891V20.8097C41.7214 20.5212 41.9553 20.2873 42.2439 20.2873H46.4232C46.7117 20.2873 46.9457 20.5212 46.9457 20.8097V24.9891C46.9457 25.2776 46.7117 25.5115 46.4232 25.5115Z" fill="#766E6E"/>
<path d="M34.8148 37.1197H30.6355C30.347 37.1197 30.113 36.8858 30.113 36.5972V32.4179C30.113 32.1294 30.347 31.8954 30.6355 31.8954H34.8148C35.1033 31.8954 35.3373 32.1294 35.3373 32.4179V36.5972C35.3373 36.8858 35.1033 37.1197 34.8148 37.1197Z" fill="#766E6E"/>
<path d="M46.393 37.5466H42.274C41.733 37.5466 41.2944 37.1082 41.2944 36.5671C41.2944 36.026 41.733 35.5875 42.274 35.5875H45.4135V32.448C45.4135 31.9069 45.852 31.4685 46.393 31.4685C46.934 31.4685 47.3726 31.9069 47.3726 32.448V36.5671C47.3726 37.1082 46.934 37.5466 46.393 37.5466Z" fill="#766E6E"/>
<path d="M38.5293 29.6828H34.523C33.982 29.6828 33.5435 29.2444 33.5435 28.7033C33.5435 28.1622 33.982 27.7237 34.523 27.7237H37.5498V20.8396C37.5498 20.2985 37.9884 19.8601 38.5293 19.8601C39.0703 19.8601 39.5089 20.2985 39.5089 20.8396V28.7033C39.5089 29.2444 39.0703 29.6828 38.5293 29.6828Z" fill="#766E6E"/>
<path d="M31.6954 29.6828H30.6656C30.1246 29.6828 29.686 29.2444 29.686 28.7033C29.686 28.1622 30.1246 27.7237 30.6656 27.7237H31.6954C32.2364 27.7237 32.6749 28.1622 32.6749 28.7033C32.6749 29.2444 32.2365 29.6828 31.6954 29.6828Z" fill="#766E6E"/>
<path d="M43.5163 29.6828H42.274C41.733 29.6828 41.2944 29.2444 41.2944 28.7033C41.2944 28.1622 41.733 27.7237 42.274 27.7237H43.5163C44.0573 27.7237 44.4958 28.1622 44.4958 28.7033C44.4958 29.2444 44.0573 29.6828 43.5163 29.6828Z" fill="#766E6E"/>
<path d="M46.3928 29.6828H46.1355C45.5946 29.6828 45.156 29.2444 45.156 28.7033C45.156 28.1622 45.5946 27.7237 46.1355 27.7237H46.3928C46.9338 27.7237 47.3724 28.1622 47.3724 28.7033C47.3724 29.2444 46.9338 29.6828 46.3928 29.6828Z" fill="#766E6E"/>
<path d="M38.5293 37.5466C37.9884 37.5466 37.5498 37.1082 37.5498 36.5671V32.448C37.5498 31.9069 37.9884 31.4685 38.5293 31.4685H43.5164C44.0574 31.4685 44.4959 31.9069 44.4959 32.448C44.4959 32.9891 44.0574 33.4276 43.5164 33.4276H39.5089V36.5671C39.5089 37.1082 39.0703 37.5466 38.5293 37.5466Z" fill="#766E6E"/>
<path d="M50.7349 66.87H26.3237C23.1978 66.87 20.6548 64.3268 20.6548 61.2011V9.78078C20.6548 6.65487 23.1979 4.11185 26.3237 4.11185H50.7349C53.8608 4.11185 56.4038 6.655 56.4038 9.78078V61.2011C56.4038 64.3268 53.8607 66.87 50.7349 66.87ZM26.3237 6.0708C24.278 6.0708 22.6139 7.73497 22.6139 9.78065V61.2009C22.6139 63.2466 24.2782 64.9108 26.3237 64.9108H50.7349C52.7806 64.9108 54.4448 63.2466 54.4448 61.2009V9.78078C54.4448 7.7351 52.7805 6.07093 50.7349 6.07093H26.3237V6.0708Z" fill="#54469C"/>
<path d="M47.4336 9.86045C47.9746 9.86045 48.4132 9.42189 48.4132 8.88091C48.4132 8.33992 47.9746 7.90137 47.4336 7.90137C46.8927 7.90137 46.4541 8.33992 46.4541 8.88091C46.4541 9.42189 46.8927 9.86045 47.4336 9.86045Z" fill="#8379C1"/>
<path d="M50.7942 9.86051C51.3352 9.86051 51.7738 9.42195 51.7738 8.88097C51.7738 8.33998 51.3352 7.90143 50.7942 7.90143C50.2533 7.90143 49.8147 8.33998 49.8147 8.88097C49.8147 9.42195 50.2533 9.86051 50.7942 9.86051Z" fill="#8379C1"/>
</svg>
