<svg id="Layer_1" enable-background="new 0 0 65 65" viewBox="0 0 65 65" xmlns="http://www.w3.org/2000/svg"><g><g><circle cx="32.5" cy="32.5" fill="#eaebf0" r="32"/></g><g><g><path d="m30.5 8.5h4v14.6h-4z" fill="#b3e3a5"/><path d="m35.3 23.8h-5.5v-16.1h5.5zm-4-1.5h2.5v-13.1h-2.5z" fill="#47769d"/></g></g><g><g><path d="m30.5 41.9h4v14.6h-4z" fill="#b4dbfd"/><path d="m35.3 57.2h-5.5v-16h5.5zm-4-1.5h2.5v-13h-2.5z" fill="#47769d"/></g></g><g><g><path d="m41.9 30.5h14.6v4h-14.6z" fill="#ff6877"/><path d="m57.2 35.2h-16v-5.5h16.1v5.5zm-14.5-1.5h13.1v-2.5h-13.1z" fill="#47769d"/></g></g><g><g><path d="m8.5 30.5h14.6v4h-14.6z" fill="#e2f3ff"/><path d="m23.8 35.2h-16.1v-5.5h16.1zm-14.6-1.5h13.1v-2.5h-13.1z" fill="#47769d"/></g></g><g><g><path d="m37 18.7h14.6v4h-14.6z" fill="#f5fdff" transform="matrix(.707 -.707 .707 .707 -1.649 37.396)"/><path d="m40.6 28.3-3.9-3.9 11.4-11.4 3.9 3.9zm-1.8-3.9 1.8 1.8 9.3-9.3-1.8-1.8z" fill="#47769d"/></g></g><g><g><path d="m13.4 42.3h14.6v4h-14.6z" fill="#cccbdd" transform="matrix(.707 -.707 .707 .707 -25.275 27.612)"/><path d="m16.9 51.9-3.9-3.9 11.4-11.4 3.9 3.9zm-1.7-3.8 1.8 1.8 9.3-9.3-1.8-1.8z" fill="#47769d"/></g></g><g><g><path d="m42.3 37h4v14.6h-4z" fill="#ffd087" transform="matrix(.707 -.707 .707 .707 -18.355 44.313)"/><path d="m48.1 51.9-11.4-11.3 3.9-3.9 11.4 11.4zm-9.3-11.3 9.3 9.3 1.8-1.8-9.3-9.3z" fill="#47769d"/></g></g></g></svg>