<?xml version="1.0" encoding="UTF-8"?>
<!DOCTYPE svg PUBLIC "-//W3C//DTD SVG 1.1//EN" "http://www.w3.org/Graphics/SVG/1.1/DTD/svg11.dtd">
<!-- Creator: CorelDRAW 2018 (64-Bit Evaluation Version) -->
<svg xmlns="http://www.w3.org/2000/svg" xml:space="preserve" width="1400mm" height="500mm" version="1.1" style="shape-rendering:geometricPrecision; text-rendering:geometricPrecision; image-rendering:optimizeQuality; fill-rule:evenodd; clip-rule:evenodd"
viewBox="0 0 140000 50000"
 xmlns:xlink="http://www.w3.org/1999/xlink">
 <defs>
  <style type="text/css">
   <![CDATA[
    .str0 {stroke:#FEFEFE;stroke-width:609.59;stroke-miterlimit:22.9256}
    .fil2 {fill:#2EC563}
    .fil0 {fill:#416CEF}
    .fil5 {fill:#416CEF}
    .fil3 {fill:#FEFEFE;fill-rule:nonzero}
    .fil1 {fill:#2B2A29;fill-rule:nonzero}
    .fil4 {fill:#2EC563;fill-rule:nonzero}
   ]]>
  </style>
 </defs>
 <g id="Layer_x0020_1">
  <metadata id="CorelCorpID_0Corel-Layer"/>
  <g id="_2321899319248">
   <path class="fil0" d="M23826.82 3766.28c11727,0 21233.72,9506.72 21233.72,21233.72 0,11727 -9506.72,21233.72 -21233.72,21233.72 -11726.99,0 -21233.57,-9506.72 -21233.57,-21233.72 0,-11727 9506.58,-21233.72 21233.57,-21233.72z"/>
   <path class="fil1" d="M97416.17 37828.27c-433.76,0 -756.04,-110.72 -966.86,-332.16 -210.83,-221.44 -316.26,-547.53 -316.26,-978.25l0 -1938.33 373.12 0 0 1920.11c0,330.65 72.81,579.38 218.39,746.23 145.62,166.82 376.13,250.24 691.61,250.24 297.26,0 523.26,-83.42 677.95,-250.24 154.73,-166.85 232.06,-415.58 232.06,-746.23l0 -1920.11 373.12 0 0 1938.33c0,430.72 -108.45,756.81 -325.33,978.25 -216.88,221.44 -536.15,332.16 -957.8,332.16zm2015.7 -40.96l0 -1756.3c0,-84.94 -3.78,-172.14 -11.39,-261.63 -7.56,-89.49 -15.9,-178.24 -25.01,-266.18l354.89 0 45.52 500.47 -54.59 0c66.71,-175.92 173.65,-310.15 320.77,-402.65 147.13,-92.54 317.72,-138.79 511.87,-138.79 269.97,0 473.96,72.04 611.97,216.12 138.05,144.11 207.04,370.84 207.04,680.26l0 1428.7 -368.56 0 0 -1405.96c0,-215.38 -43.2,-372.35 -129.68,-470.95 -86.44,-98.56 -220.67,-147.85 -402.65,-147.85 -212.37,0 -380.69,65.2 -505.07,195.65 -124.35,130.44 -186.55,304.86 -186.55,523.25l0 1305.86 -368.56 0zm2666.35 0l0 -2284.11 368.56 0 0 2284.11 -368.56 0zm-45.52 -2802.82l0 -414.08 455.04 0 0 414.08 -455.04 0zm1128.44 2802.82l0 -3348.85 368.56 0 0 2079.4 9.07 0 1060.18 -1014.66 464.11 0 -1251.27 1192.09 9.11 -186.54 1360.45 1278.56 -477.74 0 -1164.84 -1073.8 -9.07 0 0 1073.8 -368.56 0zm3571.79 0l0 -3207.78 377.64 0 0 1419.63 1933.77 0 0 -1419.63 373.12 0 0 3207.78 -373.12 0 0 -1465.1 -1933.77 0 0 1465.1 -377.64 0zm4313.44 40.96c-203.21,0 -380.68,-47.79 -532.32,-143.34 -151.68,-95.55 -269.24,-231.28 -352.62,-407.21 -83.43,-175.96 -125.16,-386.78 -125.16,-632.47 0,-248.73 41.73,-461.06 125.16,-637.02 83.38,-175.93 200.94,-310.89 352.62,-404.93 151.64,-94.04 329.11,-141.07 532.32,-141.07 206.31,0 384.51,52.31 534.65,156.97 150.17,104.66 249.5,246.46 298.03,425.43l-54.59 0 50.03 -541.43 354.9 0c-9.07,87.94 -17.41,176.69 -25.01,266.18 -7.57,89.49 -11.39,176.69 -11.39,261.63l0 1756.3 -368.53 0 0 -536.92 50.03 0c-48.52,178.98 -148.63,320.04 -300.31,423.15 -151.64,103.16 -327.6,154.73 -527.81,154.73zm72.81 -300.31c218.43,0 391.31,-75.08 518.7,-225.22 127.44,-150.17 191.14,-369.34 191.14,-657.49 0,-291.2 -63.7,-511.86 -191.14,-662.04 -127.39,-150.13 -300.27,-225.22 -518.7,-225.22 -215.38,0 -387.52,75.09 -516.42,225.22 -128.9,150.18 -193.37,370.84 -193.37,662.04 0,288.15 64.47,507.32 193.37,657.49 128.9,150.14 301.04,225.22 516.42,225.22zm1788.2 259.35l0 -2284.11 368.56 0 0 2284.11 -368.56 0zm-45.52 -2802.82l0 -414.08 455.04 0 0 414.08 -455.04 0zm3125.91 2843.78c-224.45,0 -395.86,-64.47 -514.15,-193.37 -118.28,-128.94 -177.46,-323.82 -177.46,-584.68l0 -1260.38 -445.9 0 0 -286.64 445.9 0 0 -623.36 368.56 -104.66 0 728.02 655.21 0 0 286.64 -655.21 0 0 1219.42c0,181.99 31.12,311.66 93.27,389.03 62.19,77.36 155.46,116.01 279.85,116.01 57.64,0 109.17,-5.29 154.69,-15.91 45.52,-10.61 86.44,-23.51 122.84,-38.68l0 309.42c-42.46,18.18 -93.27,32.58 -152.41,43.2 -59.14,10.62 -117.55,15.94 -175.19,15.94zm1697.16 0c-218.39,0 -408.71,-47.79 -571.01,-143.34 -162.29,-95.55 -287.41,-232.05 -375.4,-409.48 -87.94,-177.47 -131.95,-387.52 -131.95,-630.2 0,-245.72 44.01,-456.5 131.95,-632.47 87.99,-175.92 213.11,-311.66 375.4,-407.2 162.3,-95.55 352.62,-143.35 571.01,-143.35 221.44,0 413.31,47.8 575.61,143.35 162.29,95.54 288.15,231.28 377.63,407.2 89.49,175.97 134.23,386.75 134.23,632.47 0,242.68 -44.74,452.73 -134.23,630.2 -89.48,177.43 -215.34,313.93 -377.63,409.48 -162.3,95.55 -354.17,143.34 -575.61,143.34zm0 -300.31c218.43,0 391.31,-75.08 518.74,-225.22 127.4,-150.17 191.1,-369.34 191.1,-657.49 0,-291.2 -64.47,-511.86 -193.38,-662.04 -128.94,-150.13 -301.08,-225.22 -516.46,-225.22 -215.34,0 -386.75,75.09 -514.14,225.22 -127.4,150.18 -191.1,370.84 -191.1,662.04 0,288.15 63.7,507.32 191.1,657.49 127.39,150.14 298.8,225.22 514.14,225.22zm2889.34 259.35l0 -3207.78 1305.86 0c336.71,0 596.06,81.14 778.05,243.44 182.02,162.26 273.01,387.48 273.01,675.67 0,282.09 -90.99,505.81 -273.01,671.11 -181.99,165.35 -441.34,248 -778.05,248l-928.23 0 0 1369.56 -377.63 0zm377.63 -1683.53l891.82 0c233.56,0 410.26,-53.09 530.09,-159.25 119.79,-106.16 179.71,-254.79 179.71,-445.89 0,-194.15 -59.92,-344.28 -179.71,-450.45 -119.83,-106.16 -296.53,-159.24 -530.09,-159.24l-891.82 0 0 1214.83zm3303.34 1724.49c-203.22,0 -380.69,-47.79 -532.33,-143.34 -151.68,-95.55 -269.23,-231.28 -352.62,-407.21 -83.43,-175.96 -125.16,-386.78 -125.16,-632.47 0,-248.73 41.73,-461.06 125.16,-637.02 83.39,-175.93 200.94,-310.89 352.62,-404.93 151.64,-94.04 329.11,-141.07 532.33,-141.07 206.3,0 384.51,52.31 534.64,156.97 150.18,104.66 249.51,246.46 298.03,425.43l-54.58 0 50.03 -541.43 354.9 0c-9.08,87.94 -17.41,176.69 -25.02,266.18 -7.57,89.49 -11.39,176.69 -11.39,261.63l0 1756.3 -368.52 0 0 -536.92 50.03 0c-48.53,178.98 -148.63,320.04 -300.31,423.15 -151.64,103.16 -327.61,154.73 -527.81,154.73zm72.81 -300.31c218.43,0 391.3,-75.08 518.7,-225.22 127.43,-150.17 191.13,-369.34 191.13,-657.49 0,-291.2 -63.7,-511.86 -191.13,-662.04 -127.4,-150.13 -300.27,-225.22 -518.7,-225.22 -215.38,0 -387.52,75.09 -516.43,225.22 -128.9,150.18 -193.37,370.84 -193.37,662.04 0,288.15 64.47,507.32 193.37,657.49 128.91,150.14 301.05,225.22 516.43,225.22zm1674.42 1292.2l-86.47 -304.83c142.57,-33.39 261.62,-72.04 357.21,-116.05 95.55,-43.97 175.15,-102.38 238.85,-175.15 63.7,-72.81 118.33,-163.8 163.8,-273.01l118.33 -268.47 -9.11 154.7 -996.48 -2334.15 400.41 0 823.57 2006.54 -118.29 0 814.46 -2006.54 386.74 0 -1055.62 2475.21c-60.65,145.62 -127.39,267.69 -200.2,366.29 -72.81,98.59 -150.91,178.97 -234.34,241.16 -83.39,62.16 -175.15,111.46 -275.25,147.86 -100.11,36.41 -209.32,65.21 -327.61,86.44zm3735.6 -1032.85l0 -3207.78 377.64 0 0 1419.63 1933.77 0 0 -1419.63 373.12 0 0 3207.78 -373.12 0 0 -1465.1 -1933.77 0 0 1465.1 -377.64 0zm4313.44 40.96c-203.22,0 -380.68,-47.79 -532.33,-143.34 -151.68,-95.55 -269.23,-231.28 -352.62,-407.21 -83.42,-175.96 -125.15,-386.78 -125.15,-632.47 0,-248.73 41.73,-461.06 125.15,-637.02 83.39,-175.93 200.94,-310.89 352.62,-404.93 151.65,-94.04 329.11,-141.07 532.33,-141.07 206.31,0 384.51,52.31 534.65,156.97 150.17,104.66 249.5,246.46 298.03,425.43l-54.59 0 50.03 -541.43 354.9 0c-9.07,87.94 -17.41,176.69 -25.01,266.18 -7.57,89.49 -11.39,176.69 -11.39,261.63l0 1756.3 -368.53 0 0 -536.92 50.03 0c-48.52,178.98 -148.63,320.04 -300.31,423.15 -151.64,103.16 -327.6,154.73 -527.81,154.73zm72.81 -300.31c218.43,0 391.3,-75.08 518.7,-225.22 127.44,-150.17 191.14,-369.34 191.14,-657.49 0,-291.2 -63.7,-511.86 -191.14,-662.04 -127.4,-150.13 -300.27,-225.22 -518.7,-225.22 -215.38,0 -387.52,75.09 -516.42,225.22 -128.9,150.18 -193.37,370.84 -193.37,662.04 0,288.15 64.47,507.32 193.37,657.49 128.9,150.14 301.04,225.22 516.42,225.22zm1788.2 259.35l0 -2284.11 368.56 0 0 2284.11 -368.56 0zm-45.52 -2802.82l0 -414.08 455.04 0 0 414.08 -455.04 0zm1173.95 1965.63l-113.77 -2370.59 455 0 -113.73 2370.59 -227.5 0zm-118.33 837.19l0 -464.11 464.12 0 0 464.11 -464.12 0z"/>
   <path class="fil2 str0" d="M45060.49 3766.28c11726.99,0 21233.71,9506.72 21233.71,21233.72 0,11727 -9506.72,21233.72 -21233.71,21233.72 -11727,0 -21233.57,-9506.72 -21233.57,-21233.72 0,-11727 9506.57,-21233.72 21233.57,-21233.72z"/>
   <path class="fil3" d="M32527 29799.55c-1378.95,0 -2403.52,-351.93 -3073.7,-1055.86 -670.18,-704 -1005.27,-1740.63 -1005.27,-3109.9l0 -6161.91 1186.08 0 0 6104.03c0,1051.09 231.39,1841.8 694.31,2372.22 462.86,530.35 1195.69,795.56 2198.58,795.56 945.07,0 1663.45,-265.21 2155.21,-795.56 491.83,-530.42 737.74,-1321.13 737.74,-2372.22l0 -6104.03 1186.08 0 0 6161.91c0,1369.27 -344.77,2405.9 -1034.24,3109.9 -689.48,703.93 -1704.36,1055.86 -3044.79,1055.86zm6537.98 -130.15l0 -10197.52 940.23 0 6537.98 8678.74 -332.71 0 0 -8678.74 1113.81 0 0 10197.52 -925.77 0 -6537.98 -8678.74 318.25 0 0 8678.74 -1113.81 0zm10805.05 0l0 -10197.52 1200.59 0 0 10197.52 -1200.59 0zm3746.33 0l0 -10197.52 1200.59 0 0 4628.67 28.91 0 4889.05 -4628.67 1533.23 0 -5626.72 5265.11 14.45 -607.53 6017.25 5539.94 -1576.6 0 -5250.66 -4802.26 -28.91 0 0 4802.26 -1200.59 0z"/>
   <path class="fil1" d="M68809.89 29669.4l0 -10197.52 4151.37 0c1070.38,0 1894.85,257.91 2473.4,773.81 578.62,515.96 867.89,1231.95 867.89,2148.05 0,896.8 -289.27,1607.96 -867.89,2133.47 -578.55,525.57 -1403.02,788.33 -2473.4,788.33l-2950.77 0 0 4353.86 -1200.6 0zm1200.6 -5351.9l2835.01 0c742.52,0 1304.23,-168.74 1685.13,-506.29 380.91,-337.48 571.39,-810.01 571.39,-1417.47 0,-617.2 -190.48,-1094.51 -571.39,-1432.06 -380.9,-337.47 -942.61,-506.21 -1685.13,-506.21l-2835.01 0 0 3862.03zm6176.37 5351.9l4498.46 -10197.52 1041.47 0 4570.8 10197.52 -1243.96 0 -1272.87 -2907.41 535.19 303.79 -6234.25 0 578.62 -303.79 -1243.96 2907.41 -1229.5 0zm5004.74 -8823.41l-2343.25 5496.57 -347.15 -260.37 5380.81 0 -260.37 260.37 -2401.13 -5496.57 -28.91 0zm8215.89 8823.41l0 -4758.83 260.36 810.01 -4223.64 -6248.7 1388.63 0 3355.75 5077.07 -303.73 0 3341.29 -5077.07 1330.75 0 -4209.19 6248.7 260.37 -810.01 0 4758.83 -1200.59 0z"/>
   <path class="fil4" d="M99205.76 29669.4l0 -10197.52 1200.59 0 0 10197.52 -1200.59 0zm3746.33 0l0 -10197.52 940.22 0 6537.98 8678.74 -332.7 0 0 -8678.74 1113.81 0 0 10197.52 -925.78 0 -6537.98 -8678.74 318.25 0 0 8678.74 -1113.8 0zm10805.04 0l0 -10197.52 3384.72 0c1128.26,0 2082.88,195.26 2863.99,585.78 781.1,390.58 1374.17,964.29 1779.15,1721.33 405.03,756.97 607.52,1685.07 607.52,2784.42 0,1089.67 -202.49,2015.38 -607.52,2777.19 -404.98,761.81 -998.05,1340.37 -1779.15,1735.73 -781.11,395.36 -1735.73,593.07 -2863.99,593.07l-3384.72 0zm1200.6 -1027.02l2097.33 0c1388.63,0 2420.43,-339.87 3095.45,-1019.73 675.02,-679.86 1012.5,-1699.58 1012.5,-3059.24 0,-1369.34 -337.48,-2391.51 -1012.5,-3066.54 -675.02,-674.95 -1706.82,-1012.5 -3095.45,-1012.5l-2097.33 0 0 8158.01zm9604.45 1027.02l0 -10197.52 1200.6 0 0 10197.52 -1200.6 0zm2733.83 0l4498.46 -10197.52 1041.48 0 4570.79 10197.52 -1243.96 0 -1272.86 -2907.41 535.19 303.79 -6234.25 0 578.61 -303.79 -1243.95 2907.41 -1229.51 0zm5004.75 -8823.41l-2343.25 5496.57 -347.16 -260.37 5380.81 0 -260.37 260.37 -2401.13 -5496.57 -28.9 0z"/>
   <polygon class="fil5" points="68809.9,36241.24 94556.91,36241.24 94556.91,37017.39 68809.9,37017.39 "/>
  </g>
 </g>
</svg>
